<svg width="150" height="181" viewBox="0 0 150 181" fill="none" xmlns="http://www.w3.org/2000/svg">
<path d="M62.7539 134.674V135.699H62.6172C60.918 135.699 59.5801 136.201 58.6035 137.203C57.627 138.199 57.0866 139.586 56.9824 141.363C57.373 140.823 57.8711 140.406 58.4766 140.113C59.082 139.814 59.7591 139.664 60.5078 139.664C61.7578 139.664 62.7507 140.097 63.4863 140.963C64.2285 141.822 64.5996 142.949 64.5996 144.342C64.5996 145.266 64.4271 146.1 64.082 146.842C63.737 147.584 63.2422 148.163 62.5977 148.58C61.9531 148.99 61.2174 149.195 60.3906 149.195C59.0299 149.195 57.9232 148.704 57.0703 147.721C56.2174 146.731 55.791 145.455 55.791 143.893V142.721C55.791 140.175 56.3704 138.206 57.5293 136.812C58.6882 135.413 60.332 134.7 62.4609 134.674H62.7539ZM60.3223 140.67C59.5801 140.67 58.8867 140.891 58.2422 141.334C57.6042 141.77 57.1777 142.327 56.9629 143.004V144C56.9629 145.237 57.2786 146.246 57.9102 147.027C58.5482 147.809 59.375 148.199 60.3906 148.199C61.3021 148.199 62.0378 147.838 62.5977 147.115C63.1641 146.393 63.4473 145.481 63.4473 144.381C63.4473 143.261 63.1641 142.363 62.5977 141.686C62.0378 141.008 61.2793 140.67 60.3223 140.67ZM74.873 144.156H73.252V149H72.0703V138.434H73.252V143.121H74.8535L78.7305 138.434H80.2051L75.8691 143.561L80.6836 149H79.1406L74.873 144.156ZM88.2227 147.418L92.4219 138.434H93.8672V149H92.6953V140.328L88.6328 149H87.8027L83.6621 140.133V149H82.5V138.434H84.0332L88.2227 147.418ZM14.6875 176V165.434H18.5645C19.9056 165.434 20.9342 165.674 21.6504 166.156C22.3665 166.632 22.7246 167.331 22.7246 168.256C22.7246 168.783 22.5651 169.255 22.2461 169.672C21.9271 170.082 21.4616 170.382 20.8496 170.57C21.5397 170.701 22.0931 170.997 22.5098 171.459C22.9329 171.921 23.1445 172.458 23.1445 173.07C23.1445 174.001 22.7995 174.724 22.1094 175.238C21.4258 175.746 20.4557 176 19.1992 176H14.6875ZM15.8496 171.137V175.023H19.2383C20.1172 175.023 20.7943 174.854 21.2695 174.516C21.7448 174.177 21.9824 173.689 21.9824 173.051C21.9824 172.465 21.7448 171.999 21.2695 171.654C20.7943 171.309 20.1172 171.137 19.2383 171.137H15.8496ZM15.8496 170.16H18.8086C20.6445 170.134 21.5625 169.509 21.5625 168.285C21.5625 167.641 21.3086 167.172 20.8008 166.879C20.2995 166.579 19.554 166.43 18.5645 166.43H15.8496V170.16ZM29.8438 176.195C28.9453 176.195 28.1315 175.974 27.4023 175.531C26.6797 175.089 26.1165 174.473 25.7129 173.686C25.3092 172.891 25.1074 172.003 25.1074 171.02V170.6C25.1074 169.584 25.3027 168.669 25.6934 167.855C26.0905 167.042 26.6406 166.404 27.3438 165.941C28.0469 165.473 28.8086 165.238 29.6289 165.238C30.9115 165.238 31.9271 165.678 32.6758 166.557C33.431 167.429 33.8086 168.624 33.8086 170.141V170.795H26.2695V171.02C26.2695 172.217 26.6113 173.217 27.2949 174.018C27.985 174.812 28.8509 175.209 29.8926 175.209C30.5176 175.209 31.0677 175.095 31.543 174.867C32.0247 174.639 32.4609 174.275 32.8516 173.773L33.584 174.33C32.7246 175.574 31.4779 176.195 29.8438 176.195ZM29.6289 166.234C28.75 166.234 28.0078 166.557 27.4023 167.201C26.8034 167.846 26.4388 168.712 26.3086 169.799H32.6465V169.672C32.6139 168.656 32.3242 167.829 31.7773 167.191C31.2305 166.553 30.5143 166.234 29.6289 166.234ZM44.209 165.434V176H43.0371V166.439H38.7109L38.5254 170.395C38.4473 171.859 38.3008 172.979 38.0859 173.754C37.8711 174.522 37.5521 175.089 37.1289 175.453C36.7057 175.818 36.1426 176 35.4395 176H34.9902V174.965L35.3516 174.945C36.0221 174.932 36.5039 174.607 36.7969 173.969C37.0898 173.331 37.2819 172.191 37.373 170.551L37.5879 165.434H44.209ZM46.709 170.561C46.709 169.545 46.9043 168.63 47.2949 167.816C47.6921 167.003 48.2487 166.371 48.9648 165.922C49.6875 165.466 50.5046 165.238 51.416 165.238C52.8223 165.238 53.9616 165.733 54.834 166.723C55.7064 167.706 56.1426 169.011 56.1426 170.639V170.883C56.1426 171.905 55.944 172.826 55.5469 173.646C55.1562 174.46 54.6029 175.089 53.8867 175.531C53.1706 175.974 52.3535 176.195 51.4355 176.195C50.0358 176.195 48.8965 175.704 48.0176 174.721C47.1452 173.731 46.709 172.423 46.709 170.795V170.561ZM47.8809 170.883C47.8809 172.146 48.2064 173.184 48.8574 173.998C49.515 174.805 50.3743 175.209 51.4355 175.209C52.4902 175.209 53.3431 174.805 53.9941 173.998C54.6517 173.184 54.9805 172.113 54.9805 170.785V170.561C54.9805 169.753 54.8307 169.014 54.5312 168.344C54.2318 167.673 53.8118 167.156 53.2715 166.791C52.7311 166.42 52.1126 166.234 51.416 166.234C50.3743 166.234 49.5247 166.645 48.8672 167.465C48.2096 168.279 47.8809 169.346 47.8809 170.668V170.883ZM57.6172 175.014L58.1348 174.34C58.9551 173.227 59.4271 171.599 59.5508 169.457L59.7363 165.434H65.9766V175.014H67.0703V179.105H65.9082V176H57.9688V179.105H56.8457L56.8555 175.014H57.6172ZM58.9648 175.014H64.8047V166.527H60.8496L60.7227 169.271C60.6055 171.791 60.0195 173.705 58.9648 175.014ZM68.6816 170.561C68.6816 169.545 68.877 168.63 69.2676 167.816C69.6647 167.003 70.2214 166.371 70.9375 165.922C71.6602 165.466 72.4772 165.238 73.3887 165.238C74.7949 165.238 75.9342 165.733 76.8066 166.723C77.679 167.706 78.1152 169.011 78.1152 170.639V170.883C78.1152 171.905 77.9167 172.826 77.5195 173.646C77.1289 174.46 76.5755 175.089 75.8594 175.531C75.1432 175.974 74.3262 176.195 73.4082 176.195C72.0085 176.195 70.8691 175.704 69.9902 174.721C69.1178 173.731 68.6816 172.423 68.6816 170.795V170.561ZM69.8535 170.883C69.8535 172.146 70.179 173.184 70.8301 173.998C71.4876 174.805 72.347 175.209 73.4082 175.209C74.4629 175.209 75.3158 174.805 75.9668 173.998C76.6243 173.184 76.9531 172.113 76.9531 170.785V170.561C76.9531 169.753 76.8034 169.014 76.5039 168.344C76.2044 167.673 75.7845 167.156 75.2441 166.791C74.7038 166.42 74.0853 166.234 73.3887 166.234C72.347 166.234 71.4974 166.645 70.8398 167.465C70.1823 168.279 69.8535 169.346 69.8535 170.668V170.883ZM89.0332 170.824C89.0332 172.471 88.6686 173.78 87.9395 174.75C87.2103 175.714 86.2337 176.195 85.0098 176.195C83.5645 176.195 82.4577 175.688 81.6895 174.672V180.062H80.5273V165.434H81.6113L81.6699 166.928C82.4316 165.801 83.5352 165.238 84.9805 165.238C86.2435 165.238 87.2331 165.717 87.9492 166.674C88.6719 167.631 89.0332 168.959 89.0332 170.658V170.824ZM87.8613 170.619C87.8613 169.271 87.5846 168.207 87.0312 167.426C86.4779 166.645 85.7064 166.254 84.7168 166.254C84.0007 166.254 83.3854 166.426 82.8711 166.771C82.3568 167.117 81.9629 167.618 81.6895 168.275V173.344C81.9694 173.949 82.3698 174.411 82.8906 174.73C83.4115 175.049 84.0267 175.209 84.7363 175.209C85.7194 175.209 86.4844 174.818 87.0312 174.037C87.5846 173.249 87.8613 172.11 87.8613 170.619ZM90.9863 170.561C90.9863 169.545 91.1816 168.63 91.5723 167.816C91.9694 167.003 92.526 166.371 93.2422 165.922C93.9648 165.466 94.7819 165.238 95.6934 165.238C97.0996 165.238 98.2389 165.733 99.1113 166.723C99.9837 167.706 100.42 169.011 100.42 170.639V170.883C100.42 171.905 100.221 172.826 99.8242 173.646C99.4336 174.46 98.8802 175.089 98.1641 175.531C97.4479 175.974 96.6309 176.195 95.7129 176.195C94.3132 176.195 93.1738 175.704 92.2949 174.721C91.4225 173.731 90.9863 172.423 90.9863 170.795V170.561ZM92.1582 170.883C92.1582 172.146 92.4837 173.184 93.1348 173.998C93.7923 174.805 94.6517 175.209 95.7129 175.209C96.7676 175.209 97.6204 174.805 98.2715 173.998C98.929 173.184 99.2578 172.113 99.2578 170.785V170.561C99.2578 169.753 99.1081 169.014 98.8086 168.344C98.5091 167.673 98.0892 167.156 97.5488 166.791C97.0085 166.42 96.39 166.234 95.6934 166.234C94.6517 166.234 93.8021 166.645 93.1445 167.465C92.487 168.279 92.1582 169.346 92.1582 170.668V170.883ZM110.703 171.117H109.297V176H108.125V171.117H106.729L102.822 176H101.338L105.713 170.58L101.826 165.434H103.242L106.709 170.072H108.125V165.434H109.297V170.072H110.723L114.189 165.434H115.625L111.719 170.58L116.104 176H114.609L110.703 171.117ZM121.875 176.195C120.977 176.195 120.163 175.974 119.434 175.531C118.711 175.089 118.148 174.473 117.744 173.686C117.34 172.891 117.139 172.003 117.139 171.02V170.6C117.139 169.584 117.334 168.669 117.725 167.855C118.122 167.042 118.672 166.404 119.375 165.941C120.078 165.473 120.84 165.238 121.66 165.238C122.943 165.238 123.958 165.678 124.707 166.557C125.462 167.429 125.84 168.624 125.84 170.141V170.795H118.301V171.02C118.301 172.217 118.643 173.217 119.326 174.018C120.016 174.812 120.882 175.209 121.924 175.209C122.549 175.209 123.099 175.095 123.574 174.867C124.056 174.639 124.492 174.275 124.883 173.773L125.615 174.33C124.756 175.574 123.509 176.195 121.875 176.195ZM121.66 166.234C120.781 166.234 120.039 166.557 119.434 167.201C118.835 167.846 118.47 168.712 118.34 169.799H124.678V169.672C124.645 168.656 124.355 167.829 123.809 167.191C123.262 166.553 122.546 166.234 121.66 166.234ZM130.986 171.156H129.365V176H128.184V165.434H129.365V170.121H130.967L134.844 165.434H136.318L131.982 170.561L136.797 176H135.254L130.986 171.156Z" fill="white"/>
<path d="M50 76.522H26.6666C25.7449 76.522 25 77.3011 25 78.261C25 79.2209 25.7449 80 26.6666 80H50C50.9217 80 51.6666 79.2209 51.6666 78.261C51.6666 77.3011 50.9217 76.522 50 76.522Z" fill="#D4C17F"/>
<path d="M45 73.0403C56.0283 73.0403 64.9999 63.6771 64.9999 52.1715C64.9999 46.4099 62.7982 41.045 58.7999 37.0642C58.1367 36.4033 57.0783 36.4294 56.4433 37.1217C55.8083 37.8172 55.8333 38.9182 56.4984 39.5807C59.83 42.8989 61.6667 47.3682 61.6667 52.1715C61.6667 61.7608 54.19 69.5621 45.0001 69.5621C35.8103 69.5621 28.3336 61.7606 28.3336 52.1715C28.3336 42.5806 35.8103 34.7809 45.0001 34.7809C45.9218 34.7809 46.6667 34.0017 46.6667 33.0419C46.6667 32.0801 45.9218 31.3029 45.0001 31.3029C33.9718 31.3029 25.0002 40.6643 25.0002 52.1717C25 63.6771 33.9716 73.0403 45 73.0403Z" fill="#D4C17F"/>
<path d="M53.3334 24.3462H54.1783L44.55 48.7402C42.9268 48.9715 41.6666 50.4131 41.6666 52.1713C41.6666 54.0894 43.1615 55.6495 45 55.6495C46.8383 55.6495 48.3334 54.0896 48.3334 52.1713C48.3334 51.3749 48.0668 50.6514 47.6334 50.0636L57.0385 26.2348L67.5869 42.2152C68.1068 43.0065 69.142 43.2081 69.9035 42.6621C70.6635 42.1161 70.8535 41.0344 70.3303 40.243L59.8369 24.3462H63.3336C66.0902 24.3462 68.3336 22.0054 68.3336 19.129C68.3336 16.2508 66.0902 13.9118 63.3336 13.9118H53.3336C52.4119 13.9118 51.667 14.6891 51.667 15.6508V22.607C51.6666 23.5673 52.4117 24.3462 53.3334 24.3462ZM55 17.39H63.3334C64.2533 17.39 65 18.1691 65 19.129C65 20.0873 64.2533 20.868 63.3334 20.868H55V17.39Z" fill="#D4C17F"/>
<path d="M103.333 33.0417C103.333 34.0015 104.078 34.7807 105 34.7807C114.19 34.7807 121.667 42.5804 121.667 52.1713C121.667 61.7606 114.19 69.5619 105 69.5619C95.8102 69.5619 88.3334 61.7603 88.3334 52.1713C88.3334 46.9594 90.5451 42.0672 94.4051 38.7457C95.1135 38.1354 95.215 37.0398 94.6283 36.299C94.0434 35.5598 92.9949 35.4503 92.2816 36.0625C87.6549 40.0468 85 45.9161 85 52.1715C85 63.6771 93.9717 73.0403 105 73.0403C116.028 73.0403 125 63.6771 125 52.1715C125 40.6641 116.028 31.3027 105 31.3027C104.078 31.3027 103.333 32.0799 103.333 33.0417Z" fill="#D4C17F"/>
<path d="M76.6666 76.522H60C59.0783 76.522 58.3334 77.3011 58.3334 78.261C58.3334 79.2209 59.0783 80 60 80H76.6666C77.5883 80 78.3332 79.2209 78.3332 78.261C78.3334 77.3011 77.5883 76.522 76.6666 76.522Z" fill="#D4C17F"/>
<path d="M76.6666 43.7231V38.2589C77.5883 38.2589 78.3332 37.4798 78.3332 36.5199C78.3332 35.5582 77.5883 34.7809 76.6666 34.7809H73.3332C72.4115 34.7809 71.6666 35.5582 71.6666 36.5199C71.6666 37.4798 72.4115 38.2589 73.3332 38.2589V43.7231C70.4648 44.5004 68.3332 47.1995 68.3332 50.4325C68.3332 53.6637 70.4648 56.3628 73.3332 57.1419V62.6061C72.4115 62.6061 71.6666 63.3834 71.6666 64.3451C71.6666 65.305 72.4115 66.0841 73.3332 66.0841H76.6666C77.5883 66.0841 78.3332 65.305 78.3332 64.3451C78.3332 63.3834 77.5883 62.6061 76.6666 62.6061V57.1419C79.535 56.3628 81.6666 53.6637 81.6666 50.4325C81.6666 47.1995 79.535 44.5004 76.6666 43.7231ZM75 53.9105C73.1633 53.9105 71.6666 52.3506 71.6666 50.4323C71.6666 48.5142 73.1633 46.9541 75 46.9541C76.8383 46.9541 78.3334 48.514 78.3334 50.4323C78.3334 52.3506 76.8383 53.9105 75 53.9105Z" fill="#D4C17F"/>
<path d="M102.432 49.9803C101.962 50.5802 101.667 51.3367 101.667 52.1715C101.667 54.0896 103.163 55.6497 105 55.6497C106.837 55.6497 108.333 54.0898 108.333 52.1715C108.333 50.4498 107.125 49.0273 105.552 48.7508L98.0301 27.8245H109.928C111.923 27.8245 113.083 26.1602 113.302 24.6872L114.967 15.9918C115.065 15.4805 114.938 14.9502 114.622 14.5483C114.305 14.1448 113.833 13.9118 113.333 13.9118H98.3334C97.4117 13.9118 96.6668 14.6891 96.6668 15.6508C96.6668 16.6107 97.4117 17.3898 98.3334 17.3898H111.3L110.027 24.0436C110.002 24.1636 109.93 24.3324 109.929 24.3462H96.7803L91.5619 9.82325C91.5586 9.81632 91.5535 9.81286 91.552 9.80593C91.5486 9.799 91.5502 9.79207 91.5486 9.78677L88.2152 1.09136C87.8736 0.199134 86.8953 -0.228637 86.0486 0.122709C85.1936 0.479151 84.777 1.49141 85.1186 2.38343L88.1553 10.2979L81.8869 21.7444C81.4285 22.5775 81.7068 23.6399 82.5068 24.1166C82.7668 24.2712 83.0518 24.346 83.3318 24.346C83.9119 24.346 84.4734 24.0314 84.7801 23.4695L89.6867 14.5116L93.6967 25.6711L80.9949 40.5801C80.3816 41.2983 80.4449 42.3974 81.1332 43.0357C81.4498 43.3314 81.8449 43.4757 82.2398 43.4757C82.6982 43.4757 83.1564 43.2774 83.4848 42.8914L95.0197 29.3527L102.432 49.9803Z" fill="#D4C17F"/>
<path d="M123.333 76.522H96.6666C95.7449 76.522 95 77.3011 95 78.261C95 79.2209 95.7449 80 96.6666 80H123.333C124.255 80 125 79.2209 125 78.261C125 77.3011 124.255 76.522 123.333 76.522Z" fill="#D4C17F"/>
<path d="M90 76.522H86.6666C85.7449 76.522 85 77.3011 85 78.261C85 79.2209 85.7449 80 86.6666 80H90C90.9217 80 91.6666 79.2209 91.6666 78.261C91.6666 77.3011 90.9217 76.522 90 76.522Z" fill="#D4C17F"/>
</svg>
