<svg width="150" height="182" viewBox="0 0 150 182" fill="none" xmlns="http://www.w3.org/2000/svg">
<path d="M95.3333 74.6667H58C57.2641 74.6667 56.6667 75.2641 56.6667 76V78.6667C56.6667 79.4027 57.2641 80 58 80C58.7359 80 59.3333 79.4027 59.3333 78.6667V77.3334H95.3333C96.0692 77.3334 96.6666 76.7361 96.6666 76.0002C96.6666 75.2642 96.0694 74.6667 95.3333 74.6667Z" fill="#D4C17F"/>
<path d="M67.3333 33.3333C67.3333 34.0692 67.9306 34.6666 68.6666 34.6666H74C74.7359 34.6666 75.3333 34.0692 75.3333 33.3333V25.3333C75.3333 24.5973 74.7359 24 74 24H68.6667C67.9308 24 67.3334 24.5973 67.3334 25.3333V33.3333H67.3333ZM70 26.6667H72.6667V32H70V26.6667Z" fill="#D4C17F"/>
<path d="M55.3333 16H39.3333C38.5973 16 38 16.5973 38 17.3333V44C38 44.7359 38.5973 45.3333 39.3333 45.3333C40.0692 45.3333 40.6666 44.7359 40.6666 44V18.6667H55.3333C56.0692 18.6667 56.6666 18.0694 56.6666 17.3334C56.6666 16.5975 56.0694 16 55.3333 16Z" fill="#D4C17F"/>
<path d="M102 65.3333C102 66.0692 102.597 66.6666 103.333 66.6666H108.667C109.403 66.6666 110 66.0692 110 65.3333V57.3333C110 56.5973 109.403 56 108.667 56H103.333C102.597 56 102 56.5973 102 57.3333V65.3333ZM104.667 58.6667H107.333V64H104.667V58.6667Z" fill="#D4C17F"/>
<path d="M44.6667 48C38.0759 48 38 65.16 38 65.3333C38 68.5533 40.2947 71.2453 43.3333 71.8653V78.6667C43.3333 79.4027 43.9306 80 44.6666 80C45.4025 80 45.9998 79.4027 45.9998 78.6667V71.8653C49.0384 71.2453 51.3331 68.5533 51.3331 65.3333C51.3333 65.16 51.2573 48 44.6667 48ZM44.6667 69.3333C42.4614 69.3333 40.6667 67.5386 40.6667 65.3333C40.6667 58.6906 42.4508 50.6666 44.6667 50.6666C46.8827 50.6666 48.6667 58.6906 48.6667 65.3333C48.6667 67.5386 46.872 69.3333 44.6667 69.3333Z" fill="#D4C17F"/>
<path d="M52.6667 40H47.3333C46.5973 40 46 40.5973 46 41.3333V44C46 44.7359 46.5973 45.3333 47.3333 45.3333C48.0692 45.3333 48.6666 44.7359 48.6666 44V42.6667H51.3333V49.3334C51.3333 50.0694 51.9306 50.6667 52.6666 50.6667C53.4025 50.6667 53.9998 50.0694 53.9998 49.3334V41.3334C54 40.5973 53.4027 40 52.6667 40Z" fill="#D4C17F"/>
<path d="M103.333 34.6667H108.667C109.403 34.6667 110 34.0694 110 33.3334V25.3334C110 24.5975 109.403 24.0002 108.667 24.0002H103.333C102.597 24.0002 102 24.5975 102 25.3334V33.3334C102 34.0694 102.597 34.6667 103.333 34.6667ZM104.667 26.6667H107.333V32H104.667V26.6667Z" fill="#D4C17F"/>
<path d="M52.6667 24H47.3333C46.5973 24 46 24.5973 46 25.3333V33.3333C46 34.0692 46.5973 34.6666 47.3333 34.6666H52.6666C53.4025 34.6666 53.9998 34.0692 53.9998 33.3333V25.3333C54 24.5973 53.4027 24 52.6667 24ZM51.3333 32H48.6667V26.6667H51.3334V32H51.3333Z" fill="#D4C17F"/>
<path d="M80.6667 33.3333C80.6667 34.0692 81.2641 34.6666 82 34.6666H87.3333C88.0692 34.6666 88.6666 34.0692 88.6666 33.3333V25.3333C88.6666 24.5973 88.0692 24 87.3333 24H82C81.2641 24 80.6667 24.5973 80.6667 25.3333V33.3333ZM83.3333 26.6667H86V32H83.3333V26.6667Z" fill="#D4C17F"/>
<path d="M116.667 16H100.667C99.9308 16 99.3334 16.5973 99.3334 17.3333C99.3334 18.0692 99.9308 18.6666 100.667 18.6666H115.333V72.2453C114.915 72.0959 114.471 72 114 72C113.77 72 113.54 72.02 113.315 72.06C112.395 70.4026 110.644 69.3333 108.667 69.3333C106.69 69.3333 104.939 70.4026 104.019 72.06C103.794 72.02 103.564 72 103.334 72C101.128 72 99.3336 73.7947 99.3336 76C99.3336 78.2053 101.128 80 103.334 80H114C116.205 80 118 78.2053 118 76V17.3333C118 16.5973 117.403 16 116.667 16ZM114 77.3333H103.333C102.599 77.3333 102 76.7347 102 76C102 75.2653 102.599 74.6667 103.333 74.6667C103.589 74.6667 103.832 74.74 104.056 74.8841C104.421 75.1187 104.877 75.1614 105.28 74.9987C105.683 74.8361 105.98 74.4867 106.077 74.0641C106.359 72.8494 107.424 72 108.667 72C109.909 72 110.975 72.8494 111.256 74.0641C111.353 74.4867 111.651 74.8361 112.053 74.9987C112.455 75.1614 112.912 75.1187 113.277 74.8841C114.145 74.3241 115.333 75.0094 115.333 76C115.333 76.7347 114.735 77.3333 114 77.3333Z" fill="#D4C17F"/>
<path d="M82 18.6667H87.3333C88.0692 18.6667 88.6666 18.0694 88.6666 17.3334V9.33344C88.6666 8.5975 88.0692 8.00016 87.3333 8.00016H82C81.2641 8.00016 80.6667 8.5975 80.6667 9.33344V17.3334C80.6667 18.0694 81.2641 18.6667 82 18.6667ZM83.3333 10.6667H86V16H83.3333V10.6667Z" fill="#D4C17F"/>
<path d="M80.6667 49.3333C80.6667 50.0692 81.2641 50.6666 82 50.6666H87.3333C88.0692 50.6666 88.6666 50.0692 88.6666 49.3333V41.3333C88.6666 40.5973 88.0692 40 87.3333 40H82C81.2641 40 80.6667 40.5973 80.6667 41.3333V49.3333ZM83.3333 42.6667H86V48H83.3333V42.6667Z" fill="#D4C17F"/>
<path d="M68.6667 18.6667H74C74.7359 18.6667 75.3333 18.0694 75.3333 17.3334V9.33344C75.3333 8.5975 74.7359 8.00016 74 8.00016H68.6667C67.9308 8.00016 67.3334 8.5975 67.3334 9.33344V17.3334C67.3333 18.0694 67.9306 18.6667 68.6667 18.6667ZM70 10.6667H72.6667V16H70V10.6667Z" fill="#D4C17F"/>
<path d="M77.0533 64.3867C76.8133 64.64 76.6666 64.9867 76.6666 65.3334C76.6666 65.6801 76.8133 66.0267 77.0533 66.2801C77.3066 66.5202 77.6533 66.6669 78 66.6669C78.3467 66.6669 78.6933 66.5202 78.9467 66.2801C79.1867 66.0269 79.3334 65.6801 79.3334 65.3334C79.3334 64.9867 79.1867 64.6401 78.9467 64.3867C78.44 63.8933 77.56 63.8933 77.0533 64.3867Z" fill="#D4C17F"/>
<path d="M67.3333 49.3333C67.3333 50.0692 67.9306 50.6666 68.6666 50.6666H74C74.7359 50.6666 75.3333 50.0692 75.3333 49.3333V41.3333C75.3333 40.5973 74.7359 40 74 40H68.6667C67.9308 40 67.3334 40.5973 67.3334 41.3333V49.3333H67.3333ZM70 42.6667H72.6667V48H70V42.6667Z" fill="#D4C17F"/>
<path d="M64.6667 57.3333C64.6667 58.0692 65.2641 58.6666 66 58.6666H70V70.6666C70 71.4025 70.5973 71.9998 71.3333 71.9998C72.0692 71.9998 72.6666 71.4025 72.6666 70.6666V58.6666H83.3333V70.6666C83.3333 71.4025 83.9306 71.9998 84.6666 71.9998C85.4025 71.9998 85.9998 71.4025 85.9998 70.6666V58.6666H89.9998C90.7358 58.6666 91.3331 58.0692 91.3331 57.3333C91.3331 56.5973 90.7358 56 89.9998 56H66C65.2641 56 64.6667 56.5973 64.6667 57.3333Z" fill="#D4C17F"/>
<path d="M102 49.3333C102 50.0692 102.597 50.6666 103.333 50.6666H108.667C109.403 50.6666 110 50.0692 110 49.3333V41.3333C110 40.5973 109.403 40 108.667 40H103.333C102.597 40 102 40.5973 102 41.3333V49.3333ZM104.667 42.6667H107.333V48H104.667V42.6667Z" fill="#D4C17F"/>
<path d="M95.3333 0H60.6667C59.9308 0 59.3334 0.597344 59.3334 1.33328V70.6666C59.3334 71.4025 59.9308 71.9998 60.6667 71.9998C61.4027 71.9998 62 71.4025 62 70.6666V2.66656H94V70.6666C94 71.4025 94.5973 71.9998 95.3333 71.9998C96.0692 71.9998 96.6666 71.4025 96.6666 70.6666V1.33328C96.6667 0.597344 96.0694 0 95.3333 0Z" fill="#D4C17F"/>
<path d="M34.4238 150H33.2227V136.807H25.1758V150H23.9746V135.781H34.4238V150ZM37.168 144.561C37.168 143.545 37.3633 142.63 37.7539 141.816C38.151 141.003 38.7077 140.371 39.4238 139.922C40.1465 139.466 40.9635 139.238 41.875 139.238C43.2812 139.238 44.4206 139.733 45.293 140.723C46.1654 141.706 46.6016 143.011 46.6016 144.639V144.883C46.6016 145.905 46.403 146.826 46.0059 147.646C45.6152 148.46 45.0618 149.089 44.3457 149.531C43.6296 149.974 42.8125 150.195 41.8945 150.195C40.4948 150.195 39.3555 149.704 38.4766 148.721C37.6042 147.731 37.168 146.423 37.168 144.795V144.561ZM38.3398 144.883C38.3398 146.146 38.6654 147.184 39.3164 147.998C39.974 148.805 40.8333 149.209 41.8945 149.209C42.9492 149.209 43.8021 148.805 44.4531 147.998C45.1107 147.184 45.4395 146.113 45.4395 144.785V144.561C45.4395 143.753 45.2897 143.014 44.9902 142.344C44.6908 141.673 44.2708 141.156 43.7305 140.791C43.1901 140.42 42.5716 140.234 41.875 140.234C40.8333 140.234 39.9837 140.645 39.3262 141.465C38.6686 142.279 38.3398 143.346 38.3398 144.668V144.883ZM56.9922 139.434V150H55.8203V140.439H51.4941L51.3086 144.395C51.2305 145.859 51.084 146.979 50.8691 147.754C50.6543 148.522 50.3353 149.089 49.9121 149.453C49.4889 149.818 48.9258 150 48.2227 150H47.7734V148.965L48.1348 148.945C48.8053 148.932 49.2871 148.607 49.5801 147.969C49.873 147.331 50.0651 146.191 50.1562 144.551L50.3711 139.434H56.9922ZM68.252 150H67.0801V145.156H61.3867V150H60.2148V139.434H61.3867V144.17H67.0801V139.434H68.252V150ZM70.7422 144.561C70.7422 143.545 70.9375 142.63 71.3281 141.816C71.7253 141.003 72.2819 140.371 72.998 139.922C73.7207 139.466 74.5378 139.238 75.4492 139.238C76.8555 139.238 77.9948 139.733 78.8672 140.723C79.7396 141.706 80.1758 143.011 80.1758 144.639V144.883C80.1758 145.905 79.9772 146.826 79.5801 147.646C79.1895 148.46 78.6361 149.089 77.9199 149.531C77.2038 149.974 76.3867 150.195 75.4688 150.195C74.069 150.195 72.9297 149.704 72.0508 148.721C71.1784 147.731 70.7422 146.423 70.7422 144.795V144.561ZM71.9141 144.883C71.9141 146.146 72.2396 147.184 72.8906 147.998C73.5482 148.805 74.4076 149.209 75.4688 149.209C76.5234 149.209 77.3763 148.805 78.0273 147.998C78.6849 147.184 79.0137 146.113 79.0137 144.785V144.561C79.0137 143.753 78.8639 143.014 78.5645 142.344C78.265 141.673 77.8451 141.156 77.3047 140.791C76.7643 140.42 76.1458 140.234 75.4492 140.234C74.4076 140.234 73.5579 140.645 72.9004 141.465C72.2428 142.279 71.9141 143.346 71.9141 144.668V144.883ZM86.5039 149.209C87.3177 149.209 87.998 148.981 88.5449 148.525C89.0983 148.063 89.3978 147.467 89.4434 146.738H90.5664C90.5339 147.383 90.332 147.972 89.9609 148.506C89.5898 149.033 89.0951 149.447 88.4766 149.746C87.8646 150.046 87.207 150.195 86.5039 150.195C85.1172 150.195 84.0169 149.714 83.2031 148.75C82.3958 147.786 81.9922 146.491 81.9922 144.863V144.512C81.9922 143.47 82.1745 142.549 82.5391 141.748C82.9036 140.947 83.4245 140.329 84.1016 139.893C84.7852 139.456 85.5827 139.238 86.4941 139.238C87.653 139.238 88.6068 139.583 89.3555 140.273C90.1107 140.964 90.5143 141.872 90.5664 142.998H89.4434C89.3913 142.171 89.0918 141.504 88.5449 140.996C88.0046 140.488 87.321 140.234 86.4941 140.234C85.4395 140.234 84.6191 140.615 84.0332 141.377C83.4538 142.139 83.1641 143.206 83.1641 144.58V144.922C83.1641 146.27 83.4538 147.321 84.0332 148.076C84.6191 148.831 85.4427 149.209 86.5039 149.209ZM100.498 140.43H96.6504V150H95.4785V140.43H91.7773V139.434H100.498V140.43ZM103.711 143.271H106.758C107.539 143.271 108.223 143.415 108.809 143.701C109.401 143.981 109.847 144.372 110.146 144.873C110.452 145.374 110.605 145.957 110.605 146.621C110.605 147.643 110.254 148.464 109.551 149.082C108.854 149.694 107.91 150 106.719 150H102.549V139.434H103.711V143.271ZM103.711 144.268V149.014H106.738C107.578 149.014 108.236 148.802 108.711 148.379C109.193 147.956 109.434 147.376 109.434 146.641C109.434 145.938 109.199 145.371 108.73 144.941C108.268 144.505 107.633 144.281 106.826 144.268H103.711ZM114.414 144.248H117.432C117.464 143.285 117.686 142.419 118.096 141.65C118.506 140.876 119.062 140.28 119.766 139.863C120.469 139.447 121.257 139.238 122.129 139.238C123.529 139.238 124.665 139.733 125.537 140.723C126.416 141.712 126.855 143.021 126.855 144.648V144.883C126.855 145.898 126.657 146.816 126.26 147.637C125.863 148.457 125.306 149.089 124.59 149.531C123.874 149.974 123.06 150.195 122.148 150.195C120.801 150.195 119.694 149.74 118.828 148.828C117.962 147.91 117.497 146.715 117.432 145.244H114.414V150H113.252V139.434H114.414V144.248ZM118.584 144.883C118.584 146.146 118.91 147.184 119.561 147.998C120.218 148.805 121.081 149.209 122.148 149.209C123.197 149.209 124.046 148.805 124.697 147.998C125.355 147.184 125.684 146.113 125.684 144.785V144.561C125.684 143.311 125.355 142.279 124.697 141.465C124.04 140.645 123.184 140.234 122.129 140.234C121.081 140.234 120.228 140.645 119.57 141.465C118.913 142.279 118.584 143.346 118.584 144.668V144.883ZM9.46289 171.561C9.46289 170.545 9.6582 169.63 10.0488 168.816C10.446 168.003 11.0026 167.371 11.7188 166.922C12.4414 166.466 13.2585 166.238 14.1699 166.238C15.5762 166.238 16.7155 166.733 17.5879 167.723C18.4603 168.706 18.8965 170.011 18.8965 171.639V171.883C18.8965 172.905 18.6979 173.826 18.3008 174.646C17.9102 175.46 17.3568 176.089 16.6406 176.531C15.9245 176.974 15.1074 177.195 14.1895 177.195C12.7897 177.195 11.6504 176.704 10.7715 175.721C9.89909 174.731 9.46289 173.423 9.46289 171.795V171.561ZM10.6348 171.883C10.6348 173.146 10.9603 174.184 11.6113 174.998C12.2689 175.805 13.1283 176.209 14.1895 176.209C15.2441 176.209 16.097 175.805 16.748 174.998C17.4056 174.184 17.7344 173.113 17.7344 171.785V171.561C17.7344 170.753 17.5846 170.014 17.2852 169.344C16.9857 168.673 16.5658 168.156 16.0254 167.791C15.485 167.42 14.8665 167.234 14.1699 167.234C13.1283 167.234 12.2786 167.645 11.6211 168.465C10.9635 169.279 10.6348 170.346 10.6348 171.668V171.883ZM25.5762 167.137C26.9173 167.137 28.0046 167.576 28.8379 168.455C29.6712 169.327 30.0879 170.486 30.0879 171.932V172.186C30.0879 173.143 29.8958 174.005 29.5117 174.773C29.1341 175.535 28.5872 176.131 27.8711 176.561C27.1615 176.984 26.3444 177.195 25.4199 177.195C24.0267 177.195 22.8971 176.733 22.0312 175.809C21.1719 174.878 20.7422 173.637 20.7422 172.088V171.15C20.7422 168.963 21.1589 167.215 21.9922 165.906C22.8255 164.598 24.0104 163.816 25.5469 163.562C26.5169 163.406 27.1973 163.195 27.5879 162.928C27.985 162.661 28.1836 162.296 28.1836 161.834H29.1895C29.1895 162.381 29.0755 162.833 28.8477 163.191C28.6198 163.549 28.278 163.839 27.8223 164.061C27.3665 164.275 26.6699 164.458 25.7324 164.607C24.6582 164.777 23.7923 165.236 23.1348 165.984C22.4837 166.727 22.0605 167.723 21.8652 168.973C22.2819 168.426 22.8027 167.983 23.4277 167.645C24.0592 167.306 24.7754 167.137 25.5762 167.137ZM21.9141 171.941V172.186C21.9141 173.377 22.2363 174.347 22.8809 175.096C23.5254 175.838 24.3717 176.209 25.4199 176.209C26.4746 176.209 27.321 175.835 27.959 175.086C28.597 174.331 28.916 173.341 28.916 172.117V171.863C28.916 170.763 28.5905 169.865 27.9395 169.168C27.2949 168.471 26.4486 168.123 25.4004 168.123C24.3522 168.123 23.5091 168.478 22.8711 169.188C22.2331 169.891 21.9141 170.809 21.9141 171.941ZM35.6836 175.32L38.7695 166.434H40.0293L35.5176 178.797L35.2832 179.344C34.7038 180.626 33.8086 181.268 32.5977 181.268C32.3177 181.268 32.0182 181.222 31.6992 181.131L31.6895 180.164L32.2949 180.223C32.8678 180.223 33.3301 180.079 33.6816 179.793C34.0397 179.513 34.3424 179.028 34.5898 178.338L35.1074 176.912L31.123 166.434H32.4023L35.6836 175.32ZM45.6152 176.209C46.429 176.209 47.1094 175.981 47.6562 175.525C48.2096 175.063 48.5091 174.467 48.5547 173.738H49.6777C49.6452 174.383 49.4434 174.972 49.0723 175.506C48.7012 176.033 48.2064 176.447 47.5879 176.746C46.9759 177.046 46.3184 177.195 45.6152 177.195C44.2285 177.195 43.1283 176.714 42.3145 175.75C41.5072 174.786 41.1035 173.491 41.1035 171.863V171.512C41.1035 170.47 41.2858 169.549 41.6504 168.748C42.015 167.947 42.5358 167.329 43.2129 166.893C43.8965 166.456 44.694 166.238 45.6055 166.238C46.7643 166.238 47.7181 166.583 48.4668 167.273C49.222 167.964 49.6257 168.872 49.6777 169.998H48.5547C48.5026 169.171 48.2031 168.504 47.6562 167.996C47.1159 167.488 46.4323 167.234 45.6055 167.234C44.5508 167.234 43.7305 167.615 43.1445 168.377C42.5651 169.139 42.2754 170.206 42.2754 171.58V171.922C42.2754 173.27 42.5651 174.321 43.1445 175.076C43.7305 175.831 44.554 176.209 45.6152 176.209ZM59.6094 167.43H55.7617V177H54.5898V167.43H50.8887V166.434H59.6094V167.43ZM70.0293 171.824C70.0293 173.471 69.6647 174.78 68.9355 175.75C68.2064 176.714 67.2298 177.195 66.0059 177.195C64.5605 177.195 63.4538 176.688 62.6855 175.672V181.062H61.5234V166.434H62.6074L62.666 167.928C63.4277 166.801 64.5312 166.238 65.9766 166.238C67.2396 166.238 68.2292 166.717 68.9453 167.674C69.668 168.631 70.0293 169.959 70.0293 171.658V171.824ZM68.8574 171.619C68.8574 170.271 68.5807 169.207 68.0273 168.426C67.474 167.645 66.7025 167.254 65.7129 167.254C64.9967 167.254 64.3815 167.426 63.8672 167.771C63.3529 168.117 62.959 168.618 62.6855 169.275V174.344C62.9655 174.949 63.3659 175.411 63.8867 175.73C64.4076 176.049 65.0228 176.209 65.7324 176.209C66.7155 176.209 67.4805 175.818 68.0273 175.037C68.5807 174.249 68.8574 173.11 68.8574 171.619ZM71.9824 171.561C71.9824 170.545 72.1777 169.63 72.5684 168.816C72.9655 168.003 73.5221 167.371 74.2383 166.922C74.9609 166.466 75.778 166.238 76.6895 166.238C78.0957 166.238 79.235 166.733 80.1074 167.723C80.9798 168.706 81.416 170.011 81.416 171.639V171.883C81.416 172.905 81.2174 173.826 80.8203 174.646C80.4297 175.46 79.8763 176.089 79.1602 176.531C78.444 176.974 77.627 177.195 76.709 177.195C75.3092 177.195 74.1699 176.704 73.291 175.721C72.4186 174.731 71.9824 173.423 71.9824 171.795V171.561ZM73.1543 171.883C73.1543 173.146 73.4798 174.184 74.1309 174.998C74.7884 175.805 75.6478 176.209 76.709 176.209C77.7637 176.209 78.6165 175.805 79.2676 174.998C79.9251 174.184 80.2539 173.113 80.2539 171.785V171.561C80.2539 170.753 80.1042 170.014 79.8047 169.344C79.5052 168.673 79.0853 168.156 78.5449 167.791C78.0046 167.42 77.3861 167.234 76.6895 167.234C75.6478 167.234 74.7982 167.645 74.1406 168.465C73.4831 169.279 73.1543 170.346 73.1543 171.668V171.883ZM87.9297 177.195C87.0312 177.195 86.2174 176.974 85.4883 176.531C84.7656 176.089 84.2025 175.473 83.7988 174.686C83.3952 173.891 83.1934 173.003 83.1934 172.02V171.6C83.1934 170.584 83.3887 169.669 83.7793 168.855C84.1764 168.042 84.7266 167.404 85.4297 166.941C86.1328 166.473 86.8945 166.238 87.7148 166.238C88.9974 166.238 90.013 166.678 90.7617 167.557C91.5169 168.429 91.8945 169.624 91.8945 171.141V171.795H84.3555V172.02C84.3555 173.217 84.6973 174.217 85.3809 175.018C86.071 175.812 86.9368 176.209 87.9785 176.209C88.6035 176.209 89.1536 176.095 89.6289 175.867C90.1107 175.639 90.5469 175.275 90.9375 174.773L91.6699 175.33C90.8105 176.574 89.5638 177.195 87.9297 177.195ZM87.7148 167.234C86.8359 167.234 86.0938 167.557 85.4883 168.201C84.8893 168.846 84.5247 169.712 84.3945 170.799H90.7324V170.672C90.6999 169.656 90.4102 168.829 89.8633 168.191C89.3164 167.553 88.6003 167.234 87.7148 167.234ZM102.285 177H101.113V172.156H95.4199V177H94.248V166.434H95.4199V171.17H101.113V166.434H102.285V177ZM113.535 177H112.363V172.156H106.67V177H105.498V166.434H106.67V171.17H112.363V166.434H113.535V177ZM117.959 170.271H121.006C121.787 170.271 122.471 170.415 123.057 170.701C123.649 170.981 124.095 171.372 124.395 171.873C124.701 172.374 124.854 172.957 124.854 173.621C124.854 174.643 124.502 175.464 123.799 176.082C123.102 176.694 122.158 177 120.967 177H116.797V166.434H117.959V170.271ZM117.959 171.268V176.014H120.986C121.826 176.014 122.484 175.802 122.959 175.379C123.441 174.956 123.682 174.376 123.682 173.641C123.682 172.938 123.447 172.371 122.979 171.941C122.516 171.505 121.882 171.281 121.074 171.268H117.959ZM128.438 177H127.266V166.434H128.438V177ZM138.633 166.434H139.805V177H138.633V168.318L132.93 177H131.768V166.434H132.93V175.125L138.633 166.434ZM138.574 162.625C138.574 163.374 138.317 163.979 137.803 164.441C137.295 164.904 136.611 165.135 135.752 165.135C134.906 165.135 134.222 164.907 133.701 164.451C133.187 163.989 132.93 163.38 132.93 162.625H133.926C133.926 163.165 134.085 163.579 134.404 163.865C134.73 164.152 135.179 164.295 135.752 164.295C136.325 164.295 136.771 164.145 137.09 163.846C137.415 163.546 137.578 163.139 137.578 162.625H138.574Z" fill="white"/>
</svg>
