<svg width="150" height="182" viewBox="0 0 150 182" fill="none" xmlns="http://www.w3.org/2000/svg">
<path d="M22.9102 150H21.7383V137.188L17.8711 138.623V137.529L22.7148 135.732H22.9102V150ZM37.1387 144.072C37.1387 146.077 36.7708 147.601 36.0352 148.643C35.2995 149.678 34.2155 150.195 32.7832 150.195C31.377 150.195 30.2995 149.688 29.5508 148.672C28.8021 147.65 28.418 146.165 28.3984 144.219V141.67C28.3984 139.671 28.7695 138.158 29.5117 137.129C30.2539 136.1 31.3379 135.586 32.7637 135.586C34.1699 135.586 35.2441 136.084 35.9863 137.08C36.7285 138.07 37.1126 139.531 37.1387 141.465V144.072ZM35.9668 141.523C35.9668 139.896 35.6999 138.665 35.166 137.832C34.6387 136.999 33.8379 136.582 32.7637 136.582C31.709 136.582 30.9147 136.989 30.3809 137.803C29.847 138.617 29.5736 139.818 29.5605 141.406V144.199C29.5605 145.82 29.834 147.061 30.3809 147.92C30.9342 148.779 31.735 149.209 32.7832 149.209C33.8249 149.209 34.6126 148.789 35.1465 147.949C35.6868 147.109 35.9603 145.879 35.9668 144.258V141.523ZM44.2676 144.805C44.2676 143.086 44.6029 141.729 45.2734 140.732C45.9505 139.736 46.8848 139.238 48.0762 139.238C48.7598 139.238 49.3392 139.391 49.8145 139.697V135H50.9766V139.736C51.4583 139.404 52.0573 139.238 52.7734 139.238C53.8997 139.238 54.8014 139.691 55.4785 140.596C56.1556 141.501 56.5234 142.76 56.582 144.375L56.5918 145.01C56.5918 146.618 56.2533 147.887 55.5762 148.818C54.8991 149.743 53.9714 150.205 52.793 150.205C52.0898 150.205 51.4844 150.052 50.9766 149.746V154.062H49.8145V149.756C49.3132 150.055 48.7272 150.205 48.0566 150.205C46.9434 150.205 46.0514 149.785 45.3809 148.945C44.7103 148.099 44.3424 146.93 44.2773 145.439L44.2676 144.805ZM55.4297 144.805C55.4297 143.385 55.1725 142.269 54.6582 141.455C54.1504 140.641 53.4375 140.234 52.5195 140.234C51.8555 140.234 51.3411 140.378 50.9766 140.664V148.838C51.3867 149.092 51.9076 149.219 52.5391 149.219C53.4505 149.219 54.1602 148.854 54.668 148.125C55.1758 147.389 55.4297 146.283 55.4297 144.805ZM45.4395 145.01C45.4395 146.338 45.6836 147.373 46.1719 148.115C46.6602 148.851 47.3633 149.219 48.2812 149.219C48.8932 149.219 49.4043 149.085 49.8145 148.818V140.635C49.4368 140.368 48.9323 140.234 48.3008 140.234C47.3893 140.234 46.6829 140.641 46.1816 141.455C45.6868 142.262 45.4395 143.447 45.4395 145.01ZM58.5547 144.561C58.5547 143.545 58.75 142.63 59.1406 141.816C59.5378 141.003 60.0944 140.371 60.8105 139.922C61.5332 139.466 62.3503 139.238 63.2617 139.238C64.668 139.238 65.8073 139.733 66.6797 140.723C67.5521 141.706 67.9883 143.011 67.9883 144.639V144.883C67.9883 145.905 67.7897 146.826 67.3926 147.646C67.002 148.46 66.4486 149.089 65.7324 149.531C65.0163 149.974 64.1992 150.195 63.2812 150.195C61.8815 150.195 60.7422 149.704 59.8633 148.721C58.9909 147.731 58.5547 146.423 58.5547 144.795V144.561ZM59.7266 144.883C59.7266 146.146 60.0521 147.184 60.7031 147.998C61.3607 148.805 62.2201 149.209 63.2812 149.209C64.3359 149.209 65.1888 148.805 65.8398 147.998C66.4974 147.184 66.8262 146.113 66.8262 144.785V144.561C66.8262 143.753 66.6764 143.014 66.377 142.344C66.0775 141.673 65.6576 141.156 65.1172 140.791C64.5768 140.42 63.9583 140.234 63.2617 140.234C62.2201 140.234 61.3704 140.645 60.7129 141.465C60.0553 142.279 59.7266 143.346 59.7266 144.668V144.883ZM78.5254 150H77.3535V145.156H71.6602V150H70.4883V139.434H71.6602V144.17H77.3535V139.434H78.5254V150ZM89.248 140.43H85.4004V150H84.2285V140.43H80.5273V139.434H89.248V140.43ZM97.6855 150C97.5684 149.668 97.4935 149.176 97.4609 148.525C97.0508 149.059 96.5267 149.473 95.8887 149.766C95.2572 150.052 94.5866 150.195 93.877 150.195C92.8613 150.195 92.0378 149.912 91.4062 149.346C90.7812 148.779 90.4688 148.063 90.4688 147.197C90.4688 146.169 90.8952 145.355 91.748 144.756C92.6074 144.157 93.8021 143.857 95.332 143.857H97.4512V142.656C97.4512 141.901 97.2168 141.309 96.748 140.879C96.2858 140.443 95.6087 140.225 94.7168 140.225C93.903 140.225 93.2292 140.433 92.6953 140.85C92.1615 141.266 91.8945 141.768 91.8945 142.354L90.7227 142.344C90.7227 141.504 91.1133 140.778 91.8945 140.166C92.6758 139.548 93.6361 139.238 94.7754 139.238C95.9538 139.238 96.8815 139.535 97.5586 140.127C98.2422 140.713 98.5938 141.533 98.6133 142.588V147.588C98.6133 148.61 98.7207 149.375 98.9355 149.883V150H97.6855ZM94.0137 149.16C94.7949 149.16 95.4915 148.971 96.1035 148.594C96.722 148.216 97.1712 147.712 97.4512 147.08V144.756H95.3613C94.196 144.769 93.2845 144.984 92.627 145.4C91.9694 145.811 91.6406 146.377 91.6406 147.1C91.6406 147.692 91.8587 148.184 92.2949 148.574C92.7376 148.965 93.3105 149.16 94.0137 149.16ZM109.854 150H108.682V145.156H102.988V150H101.816V139.434H102.988V144.17H108.682V139.434H109.854V150ZM112.344 144.561C112.344 143.545 112.539 142.63 112.93 141.816C113.327 141.003 113.883 140.371 114.6 139.922C115.322 139.466 116.139 139.238 117.051 139.238C118.457 139.238 119.596 139.733 120.469 140.723C121.341 141.706 121.777 143.011 121.777 144.639V144.883C121.777 145.905 121.579 146.826 121.182 147.646C120.791 148.46 120.238 149.089 119.521 149.531C118.805 149.974 117.988 150.195 117.07 150.195C115.671 150.195 114.531 149.704 113.652 148.721C112.78 147.731 112.344 146.423 112.344 144.795V144.561ZM113.516 144.883C113.516 146.146 113.841 147.184 114.492 147.998C115.15 148.805 116.009 149.209 117.07 149.209C118.125 149.209 118.978 148.805 119.629 147.998C120.286 147.184 120.615 146.113 120.615 144.785V144.561C120.615 143.753 120.465 143.014 120.166 142.344C119.867 141.673 119.447 141.156 118.906 140.791C118.366 140.42 117.747 140.234 117.051 140.234C116.009 140.234 115.16 140.645 114.502 141.465C113.844 142.279 113.516 143.346 113.516 144.668V144.883ZM124.326 150V139.434H128.203C129.544 139.434 130.573 139.674 131.289 140.156C132.005 140.632 132.363 141.331 132.363 142.256C132.363 142.783 132.204 143.255 131.885 143.672C131.566 144.082 131.1 144.382 130.488 144.57C131.178 144.701 131.732 144.997 132.148 145.459C132.572 145.921 132.783 146.458 132.783 147.07C132.783 148.001 132.438 148.724 131.748 149.238C131.064 149.746 130.094 150 128.838 150H124.326ZM125.488 145.137V149.023H128.877C129.756 149.023 130.433 148.854 130.908 148.516C131.383 148.177 131.621 147.689 131.621 147.051C131.621 146.465 131.383 145.999 130.908 145.654C130.433 145.309 129.756 145.137 128.877 145.137H125.488ZM125.488 144.16H128.447C130.283 144.134 131.201 143.509 131.201 142.285C131.201 141.641 130.947 141.172 130.439 140.879C129.938 140.579 129.193 140.43 128.203 140.43H125.488V144.16ZM18.0176 177H16.8457V172.156H11.1523V177H9.98047V166.434H11.1523V171.17H16.8457V166.434H18.0176V177ZM27.8223 177C27.7051 176.668 27.6302 176.176 27.5977 175.525C27.1875 176.059 26.6634 176.473 26.0254 176.766C25.3939 177.052 24.7233 177.195 24.0137 177.195C22.998 177.195 22.1745 176.912 21.543 176.346C20.918 175.779 20.6055 175.063 20.6055 174.197C20.6055 173.169 21.0319 172.355 21.8848 171.756C22.7441 171.157 23.9388 170.857 25.4688 170.857H27.5879V169.656C27.5879 168.901 27.3535 168.309 26.8848 167.879C26.4225 167.443 25.7454 167.225 24.8535 167.225C24.0397 167.225 23.3659 167.433 22.832 167.85C22.2982 168.266 22.0312 168.768 22.0312 169.354L20.8594 169.344C20.8594 168.504 21.25 167.778 22.0312 167.166C22.8125 166.548 23.7728 166.238 24.9121 166.238C26.0905 166.238 27.0182 166.535 27.6953 167.127C28.3789 167.713 28.7305 168.533 28.75 169.588V174.588C28.75 175.61 28.8574 176.375 29.0723 176.883V177H27.8223ZM24.1504 176.16C24.9316 176.16 25.6283 175.971 26.2402 175.594C26.8587 175.216 27.3079 174.712 27.5879 174.08V171.756H25.498C24.3327 171.769 23.4212 171.984 22.7637 172.4C22.1061 172.811 21.7773 173.377 21.7773 174.1C21.7773 174.692 21.9954 175.184 22.4316 175.574C22.8743 175.965 23.4473 176.16 24.1504 176.16ZM44.3262 167.43H40.4785V177H39.3066V167.43H35.6055V166.434H44.3262V167.43ZM49.5605 177.195C48.6621 177.195 47.8483 176.974 47.1191 176.531C46.3965 176.089 45.8333 175.473 45.4297 174.686C45.026 173.891 44.8242 173.003 44.8242 172.02V171.6C44.8242 170.584 45.0195 169.669 45.4102 168.855C45.8073 168.042 46.3574 167.404 47.0605 166.941C47.7637 166.473 48.5254 166.238 49.3457 166.238C50.6283 166.238 51.6439 166.678 52.3926 167.557C53.1478 168.429 53.5254 169.624 53.5254 171.141V171.795H45.9863V172.02C45.9863 173.217 46.3281 174.217 47.0117 175.018C47.7018 175.812 48.5677 176.209 49.6094 176.209C50.2344 176.209 50.7845 176.095 51.2598 175.867C51.7415 175.639 52.1777 175.275 52.5684 174.773L53.3008 175.33C52.4414 176.574 51.1947 177.195 49.5605 177.195ZM49.3457 167.234C48.4668 167.234 47.7246 167.557 47.1191 168.201C46.5202 168.846 46.1556 169.712 46.0254 170.799H52.3633V170.672C52.3307 169.656 52.041 168.829 51.4941 168.191C50.9473 167.553 50.2311 167.234 49.3457 167.234ZM64.2969 171.824C64.2969 173.471 63.9323 174.78 63.2031 175.75C62.474 176.714 61.4974 177.195 60.2734 177.195C58.8281 177.195 57.7214 176.688 56.9531 175.672V181.062H55.791V166.434H56.875L56.9336 167.928C57.6953 166.801 58.7988 166.238 60.2441 166.238C61.5072 166.238 62.4967 166.717 63.2129 167.674C63.9355 168.631 64.2969 169.959 64.2969 171.658V171.824ZM63.125 171.619C63.125 170.271 62.8483 169.207 62.2949 168.426C61.7415 167.645 60.9701 167.254 59.9805 167.254C59.2643 167.254 58.6491 167.426 58.1348 167.771C57.6204 168.117 57.2266 168.618 56.9531 169.275V174.344C57.2331 174.949 57.6335 175.411 58.1543 175.73C58.6751 176.049 59.2904 176.209 60 176.209C60.9831 176.209 61.748 175.818 62.2949 175.037C62.8483 174.249 63.125 173.11 63.125 171.619ZM75.3906 171.824C75.3906 173.471 75.026 174.78 74.2969 175.75C73.5677 176.714 72.5911 177.195 71.3672 177.195C69.9219 177.195 68.8151 176.688 68.0469 175.672V181.062H66.8848V166.434H67.9688L68.0273 167.928C68.7891 166.801 69.8926 166.238 71.3379 166.238C72.6009 166.238 73.5905 166.717 74.3066 167.674C75.0293 168.631 75.3906 169.959 75.3906 171.658V171.824ZM74.2188 171.619C74.2188 170.271 73.9421 169.207 73.3887 168.426C72.8353 167.645 72.0638 167.254 71.0742 167.254C70.3581 167.254 69.7428 167.426 69.2285 167.771C68.7142 168.117 68.3203 168.618 68.0469 169.275V174.344C68.3268 174.949 68.7272 175.411 69.248 175.73C69.7689 176.049 70.3841 176.209 71.0938 176.209C72.0768 176.209 72.8418 175.818 73.3887 175.037C73.9421 174.249 74.2188 173.11 74.2188 171.619ZM84.9316 166.434H86.1035V177H84.9316V168.318L79.2285 177H78.0664V166.434H79.2285V175.125L84.9316 166.434ZM96.8262 167.43H92.9785V177H91.8066V167.43H88.1055V166.434H96.8262V167.43ZM97.6953 171.561C97.6953 170.545 97.8906 169.63 98.2812 168.816C98.6784 168.003 99.235 167.371 99.9512 166.922C100.674 166.466 101.491 166.238 102.402 166.238C103.809 166.238 104.948 166.733 105.82 167.723C106.693 168.706 107.129 170.011 107.129 171.639V171.883C107.129 172.905 106.93 173.826 106.533 174.646C106.143 175.46 105.589 176.089 104.873 176.531C104.157 176.974 103.34 177.195 102.422 177.195C101.022 177.195 99.8828 176.704 99.0039 175.721C98.1315 174.731 97.6953 173.423 97.6953 171.795V171.561ZM98.8672 171.883C98.8672 173.146 99.1927 174.184 99.8438 174.998C100.501 175.805 101.361 176.209 102.422 176.209C103.477 176.209 104.329 175.805 104.98 174.998C105.638 174.184 105.967 173.113 105.967 171.785V171.561C105.967 170.753 105.817 170.014 105.518 169.344C105.218 168.673 104.798 168.156 104.258 167.791C103.717 167.42 103.099 167.234 102.402 167.234C101.361 167.234 100.511 167.645 99.8535 168.465C99.196 169.279 98.8672 170.346 98.8672 171.668V171.883ZM118.047 171.824C118.047 173.471 117.682 174.78 116.953 175.75C116.224 176.714 115.247 177.195 114.023 177.195C112.578 177.195 111.471 176.688 110.703 175.672V181.062H109.541V166.434H110.625L110.684 167.928C111.445 166.801 112.549 166.238 113.994 166.238C115.257 166.238 116.247 166.717 116.963 167.674C117.686 168.631 118.047 169.959 118.047 171.658V171.824ZM116.875 171.619C116.875 170.271 116.598 169.207 116.045 168.426C115.492 167.645 114.72 167.254 113.73 167.254C113.014 167.254 112.399 167.426 111.885 167.771C111.37 168.117 110.977 168.618 110.703 169.275V174.344C110.983 174.949 111.383 175.411 111.904 175.73C112.425 176.049 113.04 176.209 113.75 176.209C114.733 176.209 115.498 175.818 116.045 175.037C116.598 174.249 116.875 173.11 116.875 171.619ZM127.588 166.434H128.76V177H127.588V168.318L121.885 177H120.723V166.434H121.885V175.125L127.588 166.434ZM138.838 166.434H140.01V177H138.838V168.318L133.135 177H131.973V166.434H133.135V175.125L138.838 166.434Z" fill="white"/>
<path d="M88.3894 4.59554C88.572 4.59554 88.7561 4.5582 88.9334 4.4782C89.3147 4.30757 89.7014 4.14616 90.0934 3.9982C90.7828 3.73554 91.1294 2.96617 90.8667 2.2782C90.6053 1.58883 89.8347 1.24758 89.1479 1.50351C88.7065 1.67148 88.2706 1.85289 87.8426 2.04492C87.1706 2.34632 86.8694 3.13554 87.172 3.80757C87.3934 4.3021 87.8787 4.59554 88.3894 4.59554Z" fill="#D4C17F"/>
<path d="M88.3334 33.5114C89.0708 33.5114 89.6667 32.9155 89.6667 32.1781V31.9475C89.6667 31.5969 89.6894 31.2528 89.7334 30.9142C89.8294 30.1836 89.3147 29.5142 88.5867 29.4183C87.8347 29.3224 87.1867 29.8369 87.0894 30.5663C87.0308 31.0169 87 31.4822 87 31.9477V32.1783C87.0001 32.9155 87.5961 33.5114 88.3334 33.5114Z" fill="#D4C17F"/>
<path d="M81.6667 33.8408C82.4041 33.8408 83 33.2434 83 32.5075V31.1528C83 30.4169 82.4041 29.8195 81.6667 29.8195C80.9294 29.8195 80.3334 30.4169 80.3334 31.1528V32.5075C80.3334 33.2434 80.9294 33.8408 81.6667 33.8408Z" fill="#D4C17F"/>
<path d="M89.3228 12.7514C88.8934 12.9874 88.4734 13.2421 88.0695 13.5129C87.4575 13.9222 87.2922 14.7514 87.7016 15.3635C87.9589 15.7475 88.3815 15.9541 88.8109 15.9541C89.0669 15.9541 89.3242 15.8821 89.5509 15.7288C89.8936 15.5008 90.2468 15.2861 90.6095 15.0861C91.2536 14.7314 91.4895 13.9194 91.1348 13.2755C90.7787 12.6302 89.9693 12.3982 89.3228 12.7514Z" fill="#D4C17F"/>
<path d="M70.4108 12.6155C70.6628 13.0182 71.0961 13.2396 71.5402 13.2396C71.7828 13.2396 72.0281 13.1743 72.2469 13.0355C72.871 12.6435 73.0602 11.8208 72.6683 11.1982C72.4163 10.7968 72.155 10.4049 71.8803 10.0208C71.4524 9.42225 70.6217 9.28225 70.0203 9.71288C69.4203 10.1423 69.283 10.9743 69.711 11.5729C69.9547 11.9129 70.1881 12.2608 70.4108 12.6155Z" fill="#D4C17F"/>
<path d="M94.7881 2.79554C94.8428 2.79554 94.9001 2.79148 94.9561 2.78491C95.3681 2.73288 95.7854 2.69288 96.2067 2.66351C96.9426 2.61413 97.4973 1.97945 97.4493 1.24492C97.4014 0.51023 96.7561 -0.0457064 96.0307 0.00351226C95.5561 0.0341372 95.0867 0.0808559 94.6228 0.13945C93.8922 0.231481 93.3734 0.898042 93.4668 1.62882C93.5508 2.3021 94.1254 2.79554 94.7881 2.79554Z" fill="#D4C17F"/>
<path d="M89.844 24.6955C89.344 25.2355 89.3747 26.0795 89.9134 26.5795C90.1722 26.8181 90.4961 26.9355 90.8214 26.9355C91.18 26.9355 91.5361 26.7928 91.8 26.5088C92.0773 26.2102 92.3826 25.9274 92.7079 25.6688C93.2853 25.2102 93.3812 24.3714 92.9226 23.7955C92.4653 23.2196 91.6253 23.1208 91.0494 23.5808C90.6187 23.9221 90.2134 24.2981 89.844 24.6955Z" fill="#D4C17F"/>
<path d="M77.752 13.0355C77.972 13.1741 78.2174 13.2396 78.46 13.2396C78.9041 13.2396 79.3373 13.0182 79.5894 12.6155C79.812 12.2608 80.0453 11.9129 80.2894 11.5729C80.7173 10.9743 80.58 10.1423 79.98 9.71288C79.3786 9.28225 78.548 9.42225 78.12 10.0208C77.8453 10.4049 77.5827 10.7968 77.332 11.1982C76.9402 11.8208 77.1294 12.6435 77.752 13.0355Z" fill="#D4C17F"/>
<path d="M88.3334 39.9475C89.0708 39.9475 89.6667 39.3502 89.6667 38.6142V37.9475C89.6667 37.2116 89.0708 36.6142 88.3334 36.6142C87.5961 36.6142 87.0001 37.2116 87.0001 37.9475V38.6142C87.0001 39.3502 87.5961 39.9475 88.3334 39.9475Z" fill="#D4C17F"/>
<path d="M81.6388 27.0647C81.7002 27.0741 81.7602 27.078 81.8202 27.078C82.4761 27.078 83.0495 26.5927 83.1414 25.9233C83.1961 25.5127 83.2694 25.1074 83.36 24.7074C83.5241 23.9888 83.0733 23.2753 82.3547 23.1127C81.6361 22.95 80.9214 23.3994 80.7588 24.118C80.652 24.5939 80.5641 25.0766 80.4974 25.5647C80.3988 26.2941 80.9108 26.9661 81.6388 27.0647Z" fill="#D4C17F"/>
<path d="M72.5614 17.1528C72.6947 17.5475 72.8147 17.9461 72.9255 18.3514C73.0869 18.9447 73.6255 19.3355 74.2108 19.3355C74.3267 19.3355 74.4441 19.3196 74.5614 19.2875C74.7267 19.2435 74.8708 19.1635 75 19.0689C75.1294 19.1636 75.2733 19.2436 75.4386 19.2875C75.5559 19.3196 75.6733 19.3355 75.7892 19.3355C76.3745 19.3355 76.9133 18.9449 77.0745 18.3514C77.1852 17.9461 77.3039 17.5474 77.4386 17.1528C77.6772 16.4555 77.3027 15.6982 76.6066 15.4608C75.9666 15.2422 75.2919 15.5555 74.9999 16.1475C74.7078 15.5555 74.0331 15.2422 73.3931 15.4608C72.6961 15.6982 72.3228 16.4555 72.5614 17.1528Z" fill="#D4C17F"/>
<path d="M82.7855 8.18208C83.0961 8.18208 83.4081 8.07411 83.6602 7.85536C83.9761 7.58067 84.3002 7.31396 84.6308 7.05943C85.2148 6.61005 85.3228 5.77411 84.8748 5.19005C84.4255 4.60599 83.5881 4.49537 83.0055 4.94599C82.6308 5.23396 82.2655 5.53271 81.9108 5.84333C81.3548 6.32599 81.2961 7.16864 81.7802 7.72474C82.0428 8.02755 82.4134 8.18208 82.7855 8.18208Z" fill="#D4C17F"/>
<path d="M83.8214 17.5155C83.5281 17.9049 83.2508 18.3075 82.9908 18.7208C82.5975 19.3435 82.7855 20.1675 83.4081 20.5608C83.6295 20.6981 83.8734 20.7649 84.1175 20.7649C84.5602 20.7649 84.9934 20.5449 85.2469 20.1422C85.4683 19.7916 85.7028 19.4502 85.9522 19.1208C86.3948 18.5328 86.2775 17.6967 85.6895 17.2528C85.1002 16.8088 84.2641 16.9302 83.8214 17.5155Z" fill="#D4C17F"/>
<path d="M96.3028 10.6675C95.8095 10.7049 95.3242 10.7635 94.8454 10.8422C94.1187 10.9622 93.6268 11.649 93.7468 12.3755C93.8536 13.0288 94.4175 13.4914 95.0601 13.4914C95.1322 13.4914 95.2042 13.4861 95.2775 13.4741C95.6842 13.4074 96.0934 13.3582 96.5081 13.3261C97.2428 13.2688 97.7921 12.6275 97.7348 11.8929C97.6773 11.1594 97.052 10.6049 96.3028 10.6675Z" fill="#D4C17F"/>
<path d="M101.236 2.89414C101.651 2.96085 102.064 3.03945 102.472 3.12882C102.569 3.15023 102.664 3.15945 102.759 3.15945C103.372 3.15945 103.923 2.73539 104.06 2.11273C104.217 1.39273 103.763 0.682109 103.043 0.524765C102.584 0.423515 102.123 0.336797 101.655 0.262109C100.928 0.14211 100.245 0.642109 100.129 1.36883C100.013 2.09554 100.508 2.77945 101.236 2.89414Z" fill="#D4C17F"/>
<path d="M103.517 11.6261C103.057 11.4621 102.589 11.3155 102.116 11.1902C101.408 11.0061 100.676 11.4261 100.485 12.1382C100.297 12.8502 100.721 13.5794 101.433 13.7688C101.835 13.8741 102.229 13.9968 102.616 14.1368C102.765 14.19 102.916 14.2154 103.067 14.2154C103.613 14.2154 104.127 13.8754 104.321 13.3313C104.571 12.6382 104.209 11.8741 103.517 11.6261Z" fill="#D4C17F"/>
<path d="M97.124 21.2941C96.3881 21.3314 95.8214 21.9568 95.8587 22.6914C95.8947 23.4274 96.472 23.9874 97.2561 23.9568C97.6654 23.9368 98.0881 23.9488 98.4934 23.99C98.5401 23.9953 98.5867 23.9968 98.6321 23.9968C99.3081 23.9968 99.8854 23.4861 99.9574 22.8008C100.032 22.0675 99.4989 21.4128 98.7668 21.3368C98.2267 21.2821 97.6681 21.2649 97.124 21.2941Z" fill="#D4C17F"/>
<path d="M112.681 8.84614C112.944 9.13411 113.305 9.28083 113.667 9.28083C113.988 9.28083 114.309 9.16614 114.565 8.93286C115.109 8.43693 115.148 7.59286 114.652 7.0488C114.492 6.87412 114.329 6.70209 114.165 6.53412C113.648 6.0074 112.805 6.00084 112.28 6.51537C111.752 7.03005 111.745 7.87396 112.259 8.40068C112.403 8.54614 112.544 8.69552 112.681 8.84614Z" fill="#D4C17F"/>
<path d="M92.3334 50.614H76.3334C75.5961 50.614 75.0002 51.2114 75.0002 51.9473C75.0002 52.6832 75.5961 53.2806 76.3334 53.2806H92.3334C96.072 53.2806 99.0001 50.3526 99.0001 46.6139V43.9472C99.0001 43.2112 98.4042 42.6139 97.6668 42.6139H52.3335C51.5961 42.6139 51.0002 43.2112 51.0002 43.9472V46.6139C51.0002 50.3525 53.9282 53.2806 57.6669 53.2806H69.6669V59.9473C69.6669 60.6832 70.2628 61.2806 71.0002 61.2806C71.7375 61.2806 72.3335 60.6832 72.3335 59.9473V51.9473C72.3335 51.2114 71.7375 50.614 71.0002 50.614H57.6669C55.4229 50.614 53.6669 48.8567 53.6669 46.614V45.2808H96.3336V46.614C96.3334 48.8567 94.5773 50.614 92.3334 50.614Z" fill="#D4C17F"/>
<path d="M105.647 31.3755C105.66 31.5635 105.667 31.7555 105.667 31.9475C105.667 32.6834 106.263 33.2808 107 33.2808C107.737 33.2808 108.333 32.6834 108.333 31.9475C108.333 31.6916 108.324 31.4381 108.305 31.1861C108.253 30.4528 107.629 29.8981 106.881 29.9502C106.147 30.0035 105.595 30.6408 105.647 31.3755Z" fill="#D4C17F"/>
<path d="M102.831 24.0567C102.344 24.61 102.397 25.4514 102.949 25.9394C103.259 26.2114 103.548 26.5088 103.809 26.8235C104.075 27.1408 104.453 27.3035 104.836 27.3035C105.136 27.3035 105.439 27.2022 105.688 26.9955C106.253 26.5235 106.331 25.6835 105.859 25.1169C105.511 24.6981 105.124 24.301 104.712 23.9381C104.161 23.4528 103.319 23.5035 102.831 24.0567Z" fill="#D4C17F"/>
<path d="M76.3334 30.5394C76.3334 29.8035 75.7375 29.2061 75.0002 29.2061C74.2628 29.2061 73.6669 29.8035 73.6669 30.5394V32.022C73.6669 32.758 74.2628 33.3553 75.0002 33.3553C75.7375 33.3553 76.3334 32.758 76.3334 32.022V30.5394Z" fill="#D4C17F"/>
<path d="M75.0002 36.6141C74.2628 36.6141 73.6669 37.2114 73.6669 37.9473V38.6141C73.6669 39.35 74.2628 39.9473 75.0002 39.9473C75.7375 39.9473 76.3334 39.35 76.3334 38.6141V37.9473C76.3334 37.2114 75.7373 36.6141 75.0002 36.6141Z" fill="#D4C17F"/>
<path d="M80.3334 38.6141C80.3334 39.35 80.9294 39.9473 81.6667 39.9473C82.4041 39.9473 83 39.35 83 38.6141V37.9473C83 37.2114 82.4041 36.6141 81.6667 36.6141C80.9294 36.6141 80.3334 37.2114 80.3334 37.9473V38.6141Z" fill="#D4C17F"/>
<path d="M76.3334 23.9475C76.3334 23.7369 76.3361 23.5289 76.3428 23.3196C76.3587 22.7502 76.0108 22.261 75.5122 22.0569C75.4616 22.0342 75.4042 22.0342 75.3508 22.0183C75.2508 21.9916 75.1561 21.9516 75.0481 21.9489C75.0348 21.9475 75.0228 21.9475 75.0081 21.9475C75.0055 21.9475 75.0028 21.9489 75.0002 21.9489C74.9975 21.9489 74.9948 21.9475 74.9922 21.9475C74.9775 21.9475 74.9655 21.9475 74.9522 21.9489C74.8442 21.9516 74.7481 21.9916 74.6495 22.0183C74.5963 22.0342 74.5375 22.0342 74.4881 22.0569C73.9895 22.261 73.6414 22.7502 73.6575 23.3196C73.6642 23.5289 73.6669 23.7369 73.6669 23.9475V24.6142C73.6669 25.3502 74.2628 25.9475 75.0002 25.9475C75.7375 25.9475 76.3334 25.3502 76.3334 24.6142V23.9475Z" fill="#D4C17F"/>
<path d="M67.0002 38.6141C67.0002 39.35 67.5961 39.9473 68.3335 39.9473C69.0708 39.9473 69.6667 39.35 69.6667 38.6141V37.9473C69.6667 37.2114 69.0708 36.6141 68.3335 36.6141C67.5961 36.6141 67.0002 37.2114 67.0002 37.9473V38.6141Z" fill="#D4C17F"/>
<path d="M68.3335 33.8408C69.0708 33.8408 69.6667 33.2434 69.6667 32.5075V31.1528C69.6667 30.4169 69.0708 29.8195 68.3335 29.8195C67.5961 29.8195 67.0002 30.4169 67.0002 31.1528V32.5075C67.0002 33.2434 67.5961 33.8408 68.3335 33.8408Z" fill="#D4C17F"/>
<path d="M63.0002 38.6141V37.9473C63.0002 37.2114 62.4042 36.6141 61.6669 36.6141C60.9296 36.6141 60.3336 37.2114 60.3336 37.9473V38.6141C60.3336 39.35 60.9296 39.9473 61.6669 39.9473C62.4042 39.9473 63.0002 39.3501 63.0002 38.6141Z" fill="#D4C17F"/>
<path d="M44.3121 26.9955C44.5615 27.2022 44.8627 27.3035 45.1641 27.3035C45.5468 27.3035 45.9255 27.1408 46.1908 26.8235C46.4523 26.5088 46.7415 26.2114 47.0508 25.9394C47.6029 25.4514 47.6562 24.61 47.1694 24.0567C46.6841 23.5035 45.8415 23.45 45.288 23.938C44.876 24.3006 44.4893 24.698 44.1401 25.1167C43.6694 25.6835 43.7468 26.5235 44.3121 26.9955Z" fill="#D4C17F"/>
<path d="M108.333 63.9475H80.3334V57.2807C80.3334 56.5448 79.7375 55.9475 79.0002 55.9475C78.2628 55.9475 77.6669 56.5448 77.6669 57.2807V65.2807C77.6669 66.0167 78.2628 66.614 79.0002 66.614H107V73.2807C107 75.486 105.205 77.2807 103 77.2807H47.0002C44.7949 77.2807 43.0002 75.486 43.0002 73.2807V66.614H73.7775C74.5148 66.614 75.1108 66.0167 75.1108 65.2807C75.1108 64.5448 74.5148 63.9475 73.7775 63.9475H41.6668C40.9294 63.9475 40.3335 64.5448 40.3335 65.2807V73.2807C40.3335 76.9566 43.3241 79.9474 47.0002 79.9474H103C106.676 79.9474 109.667 76.9568 109.667 73.2807V65.2807C109.667 64.5448 109.071 63.9475 108.333 63.9475Z" fill="#D4C17F"/>
<path d="M67.0002 70.614V73.2807C67.0002 74.0167 67.5961 74.614 68.3335 74.614C69.0708 74.614 69.6667 74.0167 69.6667 73.2807V70.614C69.6667 69.8781 69.0708 69.2807 68.3335 69.2807C67.5961 69.2807 67.0002 69.8781 67.0002 70.614Z" fill="#D4C17F"/>
<path d="M36.3935 25.9488C36.3776 25.9474 36.3615 25.9474 36.3456 25.9474C35.6323 25.9474 35.0388 26.5141 35.0149 27.2341C35.0056 27.4714 35.0002 27.7088 35.0002 27.9474C35.0002 28.6833 35.5962 29.2806 36.3335 29.2806C37.0709 29.2806 37.6668 28.6833 37.6668 27.9474C37.6668 27.7394 37.6721 27.5341 37.6788 27.3274C37.7041 26.5914 37.1295 25.9741 36.3935 25.9488Z" fill="#D4C17F"/>
<path d="M42.1535 17.3875C42.4521 17.0996 42.7629 16.8249 43.0829 16.5635C43.6535 16.0968 43.7388 15.2568 43.2723 14.6876C42.8069 14.1182 41.9669 14.0302 41.3963 14.4982C41.019 14.8076 40.6523 15.1315 40.303 15.4702C39.7724 15.9808 39.7577 16.8249 40.2684 17.3555C40.5298 17.6261 40.879 17.7622 41.2284 17.7622C41.5615 17.7621 41.8962 17.6382 42.1535 17.3875Z" fill="#D4C17F"/>
<path d="M38.6282 19.5768C37.9709 19.2488 37.1668 19.5127 36.8388 20.1714C36.6202 20.6061 36.4174 21.0528 36.2362 21.5074C35.9629 22.1927 36.2962 22.9674 36.9788 23.2406C37.1415 23.306 37.3082 23.3366 37.4735 23.3366C38.0029 23.3366 38.5041 23.0192 38.7121 22.498C38.8654 22.1127 39.0362 21.7353 39.2215 21.366C39.5521 20.7075 39.2868 19.9075 38.6282 19.5768Z" fill="#D4C17F"/>
<path d="M41.0295 5.53677C41.2548 5.53677 41.4841 5.47943 41.6935 5.35943C42.0549 5.15146 42.4215 4.95537 42.7962 4.77271C43.4562 4.4474 43.7282 3.6474 43.4041 2.9874C43.0788 2.326 42.2774 2.05537 41.6188 2.37943C41.1921 2.58881 40.7735 2.81146 40.3629 3.0474C39.7255 3.41537 39.5055 4.23005 39.8735 4.8688C40.1202 5.29677 40.5695 5.53677 41.0295 5.53677Z" fill="#D4C17F"/>
<path d="M53.6668 70.614V73.2807C53.6668 74.0167 54.2627 74.614 55 74.614C55.7374 74.614 56.3333 74.0167 56.3333 73.2807V70.614C56.3333 69.8781 55.7374 69.2807 55 69.2807C54.2627 69.2807 53.6668 69.8781 53.6668 70.614Z" fill="#D4C17F"/>
<path d="M113.021 23.2408C113.704 22.9675 114.037 22.1928 113.764 21.5075C113.583 21.0528 113.38 20.6061 113.161 20.1716C112.832 19.513 112.031 19.2502 111.372 19.5769C110.713 19.9075 110.448 20.7075 110.779 21.3663C110.964 21.7356 111.135 22.113 111.288 22.4983C111.496 23.0197 111.997 23.3369 112.525 23.3369C112.692 23.3367 112.859 23.3061 113.021 23.2408Z" fill="#D4C17F"/>
<path d="M114.985 27.2341C114.961 26.4967 114.308 25.9061 113.607 25.9488C112.871 25.9741 112.296 26.5914 112.321 27.3274C112.328 27.5341 112.334 27.7394 112.334 27.9474C112.334 28.6833 112.929 29.2806 113.667 29.2806C114.404 29.2806 115 28.6833 115 27.9474C115 27.7088 114.995 27.4714 114.985 27.2341Z" fill="#D4C17F"/>
<path d="M109.636 3.04757C109.227 2.81163 108.808 2.58898 108.381 2.3796C107.725 2.05695 106.921 2.32757 106.596 2.98757C106.272 3.64757 106.544 4.44757 107.204 4.77288C107.579 4.95553 107.945 5.15163 108.305 5.3596C108.516 5.4796 108.745 5.53694 108.969 5.53694C109.431 5.53694 109.88 5.29694 110.127 4.86897C110.495 4.23022 110.275 3.41554 109.636 3.04757Z" fill="#D4C17F"/>
<path d="M96.3334 73.2807V70.614C96.3334 69.8781 95.7375 69.2807 95.0001 69.2807C94.2628 69.2807 93.6668 69.8781 93.6668 70.614V73.2807C93.6668 74.0167 94.2628 74.614 95.0001 74.614C95.7375 74.614 96.3334 74.0167 96.3334 73.2807Z" fill="#D4C17F"/>
<path d="M83.0001 73.2807V70.614C83.0001 69.8781 82.4042 69.2807 81.6669 69.2807C80.9295 69.2807 80.3336 69.8781 80.3336 70.614V73.2807C80.3336 74.0167 80.9295 74.614 81.6669 74.614C82.4041 74.614 83.0001 74.0167 83.0001 73.2807Z" fill="#D4C17F"/>
<path d="M108.604 14.4982C108.032 14.0302 107.192 14.1182 106.728 14.6876C106.261 15.2569 106.347 16.0969 106.916 16.5635C107.237 16.8249 107.548 17.0994 107.847 17.3875C108.104 17.6382 108.439 17.7622 108.772 17.7622C109.121 17.7622 109.469 17.6263 109.732 17.3555C110.243 16.8249 110.228 15.9808 109.697 15.4702C109.348 15.1315 108.981 14.8076 108.604 14.4982Z" fill="#D4C17F"/>
<path d="M43.1188 29.9502C42.3574 29.8996 41.7468 30.4528 41.6935 31.1861C41.6762 31.4381 41.6668 31.6914 41.6668 31.9475C41.6668 32.6834 42.2627 33.2808 43.0001 33.2808C43.7374 33.2808 44.3334 32.6834 44.3334 31.9475C44.3334 31.7555 44.3401 31.5634 44.3534 31.3755C44.4055 30.6408 43.8535 30.0035 43.1188 29.9502Z" fill="#D4C17F"/>
<path d="M61.4135 29.4181C60.6855 29.5141 60.1708 30.1834 60.2668 30.9141C60.3108 31.2527 60.3335 31.5967 60.3335 31.9474V32.178C60.3335 32.9153 60.9294 33.5113 61.6668 33.5113C62.4041 33.5113 63 32.9153 63 32.178V31.9474C63 31.482 62.9707 31.0167 62.9107 30.5659C62.8135 29.8367 62.1574 29.3208 61.4135 29.4181Z" fill="#D4C17F"/>
<path d="M59.9068 3.9982C60.2988 4.14616 60.6853 4.30757 61.0668 4.4782C61.2441 4.5582 61.4282 4.59554 61.6108 4.59554C62.1202 4.59554 62.6068 4.30226 62.8282 3.80757C63.1308 3.13554 62.8296 2.34617 62.1575 2.04492C61.7296 1.85289 61.2935 1.67164 60.8522 1.50351C60.1682 1.24758 59.3949 1.58883 59.1336 2.2782C58.8708 2.96617 59.2174 3.73554 59.9068 3.9982Z" fill="#D4C17F"/>
<path d="M59.3908 15.0861C59.7522 15.2861 60.1067 15.5008 60.4494 15.7288C60.6774 15.8821 60.9335 15.9541 61.1894 15.9541C61.6188 15.9541 62.0414 15.7474 62.2988 15.3635C62.7081 14.7514 62.5428 13.9222 61.9308 13.5129C61.5255 13.2422 61.1067 12.9875 60.6775 12.7514C60.0308 12.3982 59.2216 12.6302 58.8655 13.2755C58.5108 13.9194 58.7468 14.7314 59.3908 15.0861Z" fill="#D4C17F"/>
<path d="M36.3335 9.28084C36.6949 9.28084 37.0562 9.13412 37.3188 8.84615C37.4562 8.69553 37.5976 8.54615 37.7415 8.40084C38.2548 7.87412 38.2468 7.03022 37.7201 6.51553C37.196 6.00085 36.3534 6.01022 35.8348 6.53428C35.6707 6.70225 35.5081 6.87428 35.3481 7.04897C34.8521 7.59303 34.8907 8.43694 35.4348 8.93303C35.6909 9.16615 36.0121 9.28084 36.3335 9.28084Z" fill="#D4C17F"/>
<path d="M57.2921 25.6688C57.6174 25.9274 57.9227 26.2102 58.2001 26.5088C58.4641 26.7928 58.8201 26.9355 59.1786 26.9355C59.5027 26.9355 59.828 26.8181 60.0866 26.5795C60.6254 26.0795 60.656 25.2355 60.156 24.6955C59.7866 24.2981 59.3813 23.9222 58.9507 23.5808C58.3707 23.1222 57.5333 23.2194 57.0774 23.7955C56.6188 24.3714 56.7147 25.2102 57.2921 25.6688Z" fill="#D4C17F"/>
<path d="M64.7535 20.1421C65.0067 20.5447 65.4402 20.7647 65.8828 20.7647C66.1269 20.7647 66.3708 20.698 66.5922 20.5607C67.2149 20.1674 67.4028 19.3433 67.0096 18.7207C66.7481 18.3074 66.4708 17.9047 66.1789 17.5153C65.7349 16.93 64.9003 16.8086 64.311 17.2527C63.723 17.6968 63.6056 18.5327 64.0483 19.1207C64.2974 19.4502 64.5321 19.7914 64.7535 20.1421Z" fill="#D4C17F"/>
<path d="M65.3694 7.05943C65.7 7.31411 66.0241 7.58083 66.34 7.85536C66.5921 8.07536 66.9041 8.18208 67.2147 8.18208C67.5867 8.18208 67.9574 8.02739 68.22 7.72474C68.7041 7.1688 68.6453 6.32615 68.0894 5.84333C67.7347 5.53271 67.3694 5.23396 66.9947 4.94599C66.4121 4.49537 65.5761 4.60599 65.1253 5.19005C64.6774 5.77411 64.7855 6.61021 65.3694 7.05943Z" fill="#D4C17F"/>
<path d="M47.2415 3.15945C47.3362 3.15945 47.4308 3.15008 47.5268 3.12883C47.9362 3.03945 48.3494 2.96086 48.7641 2.89414C49.4921 2.77946 49.9868 2.09555 49.8708 1.36883C49.7562 0.642116 49.0749 0.140866 48.3455 0.262116C47.8776 0.336804 47.4149 0.423522 46.9576 0.524772C46.2376 0.682115 45.7829 1.39274 45.9402 2.11274C46.0774 2.73555 46.6282 3.15945 47.2415 3.15945Z" fill="#D4C17F"/>
<path d="M53.7935 2.6635C54.2149 2.69288 54.6321 2.73288 55.0441 2.78491C55.1 2.79163 55.1574 2.79553 55.2121 2.79553C55.8747 2.79553 56.4494 2.30225 56.5333 1.62882C56.6266 0.898194 56.108 0.231477 55.3774 0.139446C54.9133 0.0808522 54.4441 0.0341335 53.9707 0.00350858C53.2521 -0.0497726 52.5986 0.510226 52.5507 1.24491C52.5029 1.97944 53.0574 2.61413 53.7935 2.6635Z" fill="#D4C17F"/>
<path d="M67.6455 23.1128C66.9269 23.2755 66.4761 23.9888 66.6388 24.7075C66.7308 25.1075 66.8028 25.5128 66.8588 25.9234C66.9508 26.5928 67.5228 27.0781 68.1802 27.0781C68.2402 27.0781 68.3002 27.0741 68.3602 27.0649C69.0895 26.9663 69.6016 26.2942 69.5028 25.5649C69.4361 25.0769 69.3481 24.5942 69.2414 24.1181C69.0788 23.4008 68.3602 22.9514 67.6455 23.1128Z" fill="#D4C17F"/>
<path d="M46.9335 14.2155C47.0829 14.2155 47.2349 14.1902 47.3841 14.1369C47.7708 13.9969 48.1655 13.8743 48.5668 13.7689C49.2788 13.5796 49.7027 12.8504 49.5148 12.1383C49.3254 11.4263 48.5948 11.0063 47.8841 11.1904C47.4108 11.3157 46.9427 11.4624 46.4827 11.6263C45.7907 11.8743 45.4294 12.6383 45.6787 13.3316C45.8735 13.8755 46.3868 14.2155 46.9335 14.2155Z" fill="#D4C17F"/>
<path d="M53.4921 13.3262C53.9068 13.3582 54.3161 13.4076 54.7227 13.4741C54.796 13.4862 54.868 13.4915 54.94 13.4915C55.5815 13.4915 56.1468 13.0288 56.2533 12.3755C56.3733 11.6488 55.8813 10.9623 55.1547 10.8423C54.6761 10.7637 54.1907 10.7049 53.6974 10.6676C52.9721 10.6035 52.3227 11.1582 52.2654 11.8929C52.2082 12.6276 52.7574 13.2688 53.4921 13.3262Z" fill="#D4C17F"/>
<path d="M51.3682 23.9967C51.4135 23.9967 51.4602 23.9953 51.5068 23.99C51.9121 23.9486 52.3347 23.9367 52.7441 23.9567C53.5108 23.9914 54.1055 23.4274 54.1415 22.6914C54.1788 21.9567 53.6121 21.3314 52.8761 21.2941C52.3308 21.2647 51.7721 21.2821 51.2335 21.3367C50.5015 21.4127 49.9682 22.0674 50.0429 22.8008C50.1148 23.4861 50.6921 23.9967 51.3682 23.9967Z" fill="#D4C17F"/>
</svg>
