<svg width="200" height="180" viewBox="0 0 200 180" fill="none" xmlns="http://www.w3.org/2000/svg">
<path d="M133.333 45.3333C134.07 45.3333 134.666 44.7359 134.666 44V38.6667C134.666 37.9308 134.07 37.3334 133.333 37.3334H126.666V36C126.666 35.2641 126.07 34.6667 125.333 34.6667C124.596 34.6667 124 35.2641 124 36V37.3333H86.6665V36C86.6665 35.2641 86.0692 34.6667 85.3333 34.6667C84.5973 34.6667 84 35.2641 84 36V37.3333H77.3333C76.5973 37.3333 76 37.9306 76 38.6666V44C76 44.7359 76.5973 45.3333 77.3333 45.3333H85.3333H125.333H133.333ZM78.6665 42.6667V40H132V42.6667H78.6665Z" fill="#D4C17F"/>
<path d="M108 29.3333C105.844 29.3333 104.45 30.9719 104.298 31.16C103.837 31.7267 103.922 32.5547 104.486 33.0214C105.052 33.4894 105.888 33.4081 106.361 32.8508C106.366 32.8414 107.089 32.0002 108 32.0002C108.91 32.0002 109.632 32.8416 109.632 32.8416C109.896 33.1656 110.28 33.3336 110.668 33.3336C110.964 33.3336 111.26 33.2362 111.508 33.035C112.08 32.5709 112.165 31.7309 111.701 31.1603C111.549 30.972 110.156 29.3333 108 29.3333Z" fill="#D4C17F"/>
<path d="M133.333 56C134.07 56 134.666 55.4027 134.666 54.6667V49.3334C134.666 48.5975 134.07 48.0002 133.333 48.0002H126.666V46.6669C126.666 45.9309 126.07 45.3336 125.333 45.3336C124.596 45.3336 124 45.9309 124 46.6669V48.0002H86.6665V46.6669C86.6665 45.9309 86.0692 45.3336 85.3333 45.3336C84.5973 45.3336 84 45.9309 84 46.6669V48.0002H77.3333C76.5973 48.0002 76 48.5975 76 49.3334V54.6667C76 55.4027 76.5973 56 77.3333 56H85.3333H125.333H133.333ZM78.6665 53.3333V50.6666H132V53.3333H78.6665Z" fill="#D4C17F"/>
<path d="M114.965 26.1733C115.229 26.4986 115.613 26.6666 116.001 26.6666C116.297 26.6666 116.593 26.5692 116.841 26.368C117.413 25.9039 117.498 25.0639 117.034 24.4933C116.882 24.3053 115.489 22.6666 113.333 22.6666C111.177 22.6666 109.784 24.3052 109.632 24.4933C109.17 25.06 109.256 25.888 109.819 26.3547C110.385 26.8241 111.221 26.7414 111.693 26.1841C111.699 26.1747 112.422 25.3334 113.333 25.3334C114.244 25.3333 114.965 26.1733 114.965 26.1733Z" fill="#D4C17F"/>
<path d="M61.3399 17.4667C61.4079 18.1481 61.9813 18.6667 62.6666 18.6667H70.6666C71.3519 18.6667 71.9252 18.1481 71.9933 17.4667L73.3266 4.13344C73.364 3.7575 73.2413 3.38547 72.988 3.10547C72.736 2.82672 72.3774 2.66688 72 2.66688H67.9999V1.33328C67.9999 0.597344 67.4025 0 66.6666 0C65.9307 0 65.3333 0.597344 65.3333 1.33328V2.66656H61.3333C60.956 2.66656 60.5974 2.82656 60.3454 3.10516C60.0921 3.38516 59.9694 3.75719 60.0068 4.13312L61.3399 17.4667ZM70.5266 5.33328L69.4599 16H63.8732L62.8065 5.33328H70.5266Z" fill="#D4C17F"/>
<path d="M97.3331 30.6667C97.3331 32.1573 97.9424 33.5441 99.049 34.5694C99.3049 34.8067 99.6304 34.9253 99.9557 34.9253C100.313 34.9253 100.67 34.7813 100.933 34.4986C101.433 33.9586 101.402 33.1145 100.862 32.6133C100.305 32.0986 99.9998 31.4066 99.9998 30.6666C99.9998 29.5625 100.702 28.5613 101.75 28.1759C102.185 28.0159 102.505 27.6413 102.596 27.1866C102.688 26.7319 102.534 26.2625 102.196 25.9466C101.638 25.4319 101.333 24.7398 101.333 23.9998C101.333 22.6131 102.425 21.4531 103.818 21.3572C104.33 21.3225 104.776 20.9986 104.966 20.5225C105.156 20.0466 105.057 19.5039 104.71 19.1266C104.252 18.6266 104 17.9892 104 17.3333C104 15.9466 105.092 14.7866 106.485 14.6906C106.997 14.6559 107.442 14.332 107.633 13.8559C107.822 13.38 107.724 12.8373 107.377 12.46C106.92 11.96 106.667 11.3227 106.667 10.6667C106.667 9.47469 107.479 8.42266 108.64 8.10813C109.009 8.00813 109.316 7.75609 109.485 7.41609C109.656 7.07609 109.672 6.6775 109.529 6.32547C109.4 5.99875 109.333 5.66547 109.333 5.33344C109.333 3.86281 110.529 2.66672 112 2.66672C113.471 2.66672 114.667 3.86266 114.667 5.33344C114.667 5.66547 114.6 5.99875 114.471 6.32547C114.328 6.6775 114.344 7.07609 114.515 7.41609C114.684 7.75609 114.991 8.00813 115.36 8.10813C116.522 8.42281 117.333 9.47484 117.333 10.6667C117.333 11.3227 117.08 11.96 116.623 12.46C116.276 12.8373 116.177 13.38 116.367 13.8559C116.557 14.3319 117.003 14.6559 117.515 14.6906C118.908 14.7866 120 15.9466 120 17.3333C120 17.9892 119.747 18.6266 119.289 19.1266C118.943 19.5039 118.844 20.0466 119.034 20.5225C119.224 20.9984 119.669 21.3225 120.182 21.3572C121.575 21.4531 122.667 22.6131 122.667 23.9998C122.667 24.7398 122.362 25.4319 121.804 25.9466C121.466 26.2625 121.312 26.7319 121.404 27.1866C121.495 27.6413 121.815 28.0159 122.251 28.1759C123.298 28.5613 124 29.5627 124 30.6666C124 31.4025 124.596 31.9998 125.334 31.9998C126.071 31.9998 126.667 31.4025 126.667 30.6666C126.667 29.0425 125.914 27.5319 124.688 26.5372C125.11 25.7678 125.334 24.9025 125.334 23.9998C125.334 21.9145 124.107 20.0825 122.318 19.2158C122.547 18.6184 122.667 17.9811 122.667 17.3331C122.667 15.2478 121.44 13.4158 119.651 12.5491C119.88 11.9517 120 11.3144 120 10.6664C120 8.72234 118.931 6.96641 117.286 6.03703C117.318 5.80375 117.334 5.56906 117.334 5.33297C117.333 2.39203 114.941 0 112 0C109.058 0 106.667 2.39203 106.667 5.33328C106.667 5.56922 106.682 5.80391 106.714 6.03734C105.069 6.96672 104 8.72266 104 10.6667C104 11.3147 104.12 11.952 104.349 12.5494C102.56 13.4161 101.333 15.248 101.333 17.3334C101.333 17.9814 101.453 18.6188 101.683 19.2161C99.8932 20.0828 98.6667 21.9147 98.6667 24.0002C98.6667 24.9028 98.8907 25.7681 99.312 26.5375C98.0865 27.532 97.3331 29.0427 97.3331 30.6667Z" fill="#D4C17F"/>
<path d="M110.159 18.5614C110.836 18.8414 111.616 18.5187 111.9 17.8414C111.925 17.7773 111.963 17.7067 112 17.6373C112.037 17.7041 112.072 17.7733 112.097 17.8359C112.308 18.3533 112.807 18.668 113.333 18.668C113.501 18.668 113.671 18.6359 113.834 18.568C114.517 18.292 114.847 17.5133 114.569 16.832C114.421 16.4706 113.608 14.6667 112 14.6667C110.392 14.6667 109.578 16.4708 109.43 16.832C109.154 17.5106 109.481 18.2814 110.159 18.5614Z" fill="#D4C17F"/>
<path d="M138.667 77.3333H117.333C116.596 77.3333 116 77.9306 116 78.6666C116 79.4025 116.596 79.9998 117.333 79.9998H138.666C139.404 79.9998 140 79.4025 140 78.6666C140 77.9306 139.404 77.3333 138.667 77.3333Z" fill="#D4C17F"/>
<path d="M138.667 58.6667H126.667V57.3334C126.667 56.5975 126.071 56.0002 125.333 56.0002C124.596 56.0002 124 56.5975 124 57.3334V58.6667H86.6665V57.3334C86.6665 56.5975 86.0692 56.0002 85.3333 56.0002C84.5973 56.0002 84 56.5975 84 57.3334V58.6667H71.9998C71.2639 58.6667 70.6665 59.2641 70.6665 60V65.3333C70.6665 66.0692 71.2639 66.6666 71.9998 66.6666H75.9998V73.3333C75.9998 74.0692 76.5972 74.6666 77.3331 74.6666C78.069 74.6666 78.6664 74.0692 78.6664 73.3333V66.6666H132V73.3333C132 74.0692 132.596 74.6666 133.333 74.6666C134.07 74.6666 134.666 74.0692 134.666 73.3333V66.6666H138.666C139.404 66.6666 140 66.0692 140 65.3333V60C140 59.2641 139.404 58.6667 138.667 58.6667ZM137.333 64H73.3331V61.3333H137.333V64Z" fill="#D4C17F"/>
<path d="M79.9998 77.3333H67.9998V22.6667C67.9998 21.9308 67.4025 21.3334 66.6665 21.3334C65.9306 21.3334 65.3333 21.9308 65.3333 22.6667V77.3334H61.3333C60.5973 77.3334 60 77.9308 60 78.6667C60 79.4027 60.5972 80 61.3331 80H79.9998C80.7358 80 81.3331 79.4027 81.3331 78.6667C81.3331 77.9308 80.7358 77.3333 79.9998 77.3333Z" fill="#D4C17F"/>
<path d="M112 77.3333H109.333C108.596 77.3333 108 77.9306 108 78.6666C108 79.4025 108.596 79.9998 109.333 79.9998H112C112.737 79.9998 113.333 79.4025 113.333 78.6666C113.333 77.9306 112.737 77.3333 112 77.3333Z" fill="#D4C17F"/>
<path d="M101.333 77.3333H87.9998C87.2639 77.3333 86.6665 77.9306 86.6665 78.6666C86.6665 79.4025 87.2639 80 87.9998 80H101.333C102.07 80 102.666 79.4027 102.666 78.6667C102.666 77.9308 102.07 77.3333 101.333 77.3333Z" fill="#D4C17F"/>
<path d="M6.5918 142.209V148H5.39062V133.781H10.2344C11.7122 133.781 12.8776 134.159 13.7305 134.914C14.5898 135.669 15.0195 136.708 15.0195 138.029C15.0195 139.364 14.6061 140.396 13.7793 141.125C12.959 141.848 11.7676 142.209 10.2051 142.209H6.5918ZM6.5918 141.193H10.2344C11.3997 141.193 12.2884 140.917 12.9004 140.363C13.5124 139.81 13.8184 139.038 13.8184 138.049C13.8184 137.066 13.5124 136.285 12.9004 135.705C12.2949 135.119 11.4323 134.82 10.3125 134.807H6.5918V141.193ZM25.1465 137.434V148H23.9746V143.742H20.6934L18.1152 148H16.8262L19.4824 143.596C18.7598 143.407 18.1966 143.042 17.793 142.502C17.3958 141.962 17.1973 141.324 17.1973 140.588C17.1973 139.631 17.5391 138.866 18.2227 138.293C18.9128 137.72 19.8438 137.434 21.0156 137.434H25.1465ZM18.3691 140.607C18.3691 141.226 18.5645 141.734 18.9551 142.131C19.3522 142.528 19.9023 142.733 20.6055 142.746H23.9746V138.43H20.9863C20.1725 138.43 19.5312 138.625 19.0625 139.016C18.6003 139.406 18.3691 139.937 18.3691 140.607ZM28.0566 147.014L28.5742 146.34C29.3945 145.227 29.8665 143.599 29.9902 141.457L30.1758 137.434H36.416V147.014H37.5098V151.105H36.3477V148H28.4082V151.105H27.2852L27.2949 147.014H28.0566ZM29.4043 147.014H35.2441V138.527H31.2891L31.1621 141.271C31.0449 143.791 30.459 145.705 29.4043 147.014ZM39.1211 142.561C39.1211 141.545 39.3164 140.63 39.707 139.816C40.1042 139.003 40.6608 138.371 41.377 137.922C42.0996 137.466 42.9167 137.238 43.8281 137.238C45.2344 137.238 46.3737 137.733 47.2461 138.723C48.1185 139.706 48.5547 141.011 48.5547 142.639V142.883C48.5547 143.905 48.3561 144.826 47.959 145.646C47.5684 146.46 47.015 147.089 46.2988 147.531C45.5827 147.974 44.7656 148.195 43.8477 148.195C42.4479 148.195 41.3086 147.704 40.4297 146.721C39.5573 145.731 39.1211 144.423 39.1211 142.795V142.561ZM40.293 142.883C40.293 144.146 40.6185 145.184 41.2695 145.998C41.9271 146.805 42.7865 147.209 43.8477 147.209C44.9023 147.209 45.7552 146.805 46.4062 145.998C47.0638 145.184 47.3926 144.113 47.3926 142.785V142.561C47.3926 141.753 47.2428 141.014 46.9434 140.344C46.6439 139.673 46.224 139.156 45.6836 138.791C45.1432 138.42 44.5247 138.234 43.8281 138.234C42.7865 138.234 41.9368 138.645 41.2793 139.465C40.6217 140.279 40.293 141.346 40.293 142.668V142.883ZM56.8262 146.418L61.0254 137.434H62.4707V148H61.2988V139.328L57.2363 148H56.4062L52.2656 139.133V148H51.1035V137.434H52.6367L56.8262 146.418ZM77.4121 137.434H78.584V148H77.4121V139.318L71.709 148H70.5469V137.434H71.709V146.125L77.4121 137.434ZM85.625 147.209C86.4388 147.209 87.1191 146.981 87.666 146.525C88.2194 146.063 88.5189 145.467 88.5645 144.738H89.6875C89.6549 145.383 89.4531 145.972 89.082 146.506C88.7109 147.033 88.2161 147.447 87.5977 147.746C86.9857 148.046 86.3281 148.195 85.625 148.195C84.2383 148.195 83.138 147.714 82.3242 146.75C81.5169 145.786 81.1133 144.491 81.1133 142.863V142.512C81.1133 141.47 81.2956 140.549 81.6602 139.748C82.0247 138.947 82.5456 138.329 83.2227 137.893C83.9062 137.456 84.7038 137.238 85.6152 137.238C86.7741 137.238 87.7279 137.583 88.4766 138.273C89.2318 138.964 89.6354 139.872 89.6875 140.998H88.5645C88.5124 140.171 88.2129 139.504 87.666 138.996C87.1257 138.488 86.4421 138.234 85.6152 138.234C84.5605 138.234 83.7402 138.615 83.1543 139.377C82.5749 140.139 82.2852 141.206 82.2852 142.58V142.922C82.2852 144.27 82.5749 145.321 83.1543 146.076C83.7402 146.831 84.5638 147.209 85.625 147.209ZM99.6191 138.43H95.7715V148H94.5996V138.43H90.8984V137.434H99.6191V138.43ZM100.488 142.561C100.488 141.545 100.684 140.63 101.074 139.816C101.471 139.003 102.028 138.371 102.744 137.922C103.467 137.466 104.284 137.238 105.195 137.238C106.602 137.238 107.741 137.733 108.613 138.723C109.486 139.706 109.922 141.011 109.922 142.639V142.883C109.922 143.905 109.723 144.826 109.326 145.646C108.936 146.46 108.382 147.089 107.666 147.531C106.95 147.974 106.133 148.195 105.215 148.195C103.815 148.195 102.676 147.704 101.797 146.721C100.924 145.731 100.488 144.423 100.488 142.795V142.561ZM101.66 142.883C101.66 144.146 101.986 145.184 102.637 145.998C103.294 146.805 104.154 147.209 105.215 147.209C106.27 147.209 107.122 146.805 107.773 145.998C108.431 145.184 108.76 144.113 108.76 142.785V142.561C108.76 141.753 108.61 141.014 108.311 140.344C108.011 139.673 107.591 139.156 107.051 138.791C106.51 138.42 105.892 138.234 105.195 138.234C104.154 138.234 103.304 138.645 102.646 139.465C101.989 140.279 101.66 141.346 101.66 142.668V142.883ZM120.84 142.824C120.84 144.471 120.475 145.78 119.746 146.75C119.017 147.714 118.04 148.195 116.816 148.195C115.371 148.195 114.264 147.688 113.496 146.672V152.062H112.334V137.434H113.418L113.477 138.928C114.238 137.801 115.342 137.238 116.787 137.238C118.05 137.238 119.04 137.717 119.756 138.674C120.479 139.631 120.84 140.959 120.84 142.658V142.824ZM119.668 142.619C119.668 141.271 119.391 140.207 118.838 139.426C118.285 138.645 117.513 138.254 116.523 138.254C115.807 138.254 115.192 138.426 114.678 138.771C114.163 139.117 113.77 139.618 113.496 140.275V145.344C113.776 145.949 114.176 146.411 114.697 146.73C115.218 147.049 115.833 147.209 116.543 147.209C117.526 147.209 118.291 146.818 118.838 146.037C119.391 145.249 119.668 144.11 119.668 142.619ZM130.381 137.434H131.553V148H130.381V139.318L124.678 148H123.516V137.434H124.678V146.125L130.381 137.434ZM142.207 148H141.035V143.557C140.072 143.908 139.15 144.084 138.271 144.084C136.872 144.084 135.856 143.778 135.225 143.166C134.593 142.548 134.264 141.587 134.238 140.285V137.434H135.4V140.227C135.413 141.236 135.635 141.965 136.064 142.414C136.501 142.857 137.236 143.078 138.271 143.078C139.215 143.052 140.137 142.883 141.035 142.57V137.434H142.207V148ZM149.424 148.195C148.525 148.195 147.712 147.974 146.982 147.531C146.26 147.089 145.697 146.473 145.293 145.686C144.889 144.891 144.688 144.003 144.688 143.02V142.6C144.688 141.584 144.883 140.669 145.273 139.855C145.671 139.042 146.221 138.404 146.924 137.941C147.627 137.473 148.389 137.238 149.209 137.238C150.492 137.238 151.507 137.678 152.256 138.557C153.011 139.429 153.389 140.624 153.389 142.141V142.795H145.85V143.02C145.85 144.217 146.191 145.217 146.875 146.018C147.565 146.812 148.431 147.209 149.473 147.209C150.098 147.209 150.648 147.095 151.123 146.867C151.605 146.639 152.041 146.275 152.432 145.773L153.164 146.33C152.305 147.574 151.058 148.195 149.424 148.195ZM149.209 138.234C148.33 138.234 147.588 138.557 146.982 139.201C146.383 139.846 146.019 140.712 145.889 141.799H152.227V141.672C152.194 140.656 151.904 139.829 151.357 139.191C150.811 138.553 150.094 138.234 149.209 138.234ZM159.57 147.209C160.384 147.209 161.064 146.981 161.611 146.525C162.165 146.063 162.464 145.467 162.51 144.738H163.633C163.6 145.383 163.398 145.972 163.027 146.506C162.656 147.033 162.161 147.447 161.543 147.746C160.931 148.046 160.273 148.195 159.57 148.195C158.184 148.195 157.083 147.714 156.27 146.75C155.462 145.786 155.059 144.491 155.059 142.863V142.512C155.059 141.47 155.241 140.549 155.605 139.748C155.97 138.947 156.491 138.329 157.168 137.893C157.852 137.456 158.649 137.238 159.561 137.238C160.719 137.238 161.673 137.583 162.422 138.273C163.177 138.964 163.581 139.872 163.633 140.998H162.51C162.458 140.171 162.158 139.504 161.611 138.996C161.071 138.488 160.387 138.234 159.561 138.234C158.506 138.234 157.686 138.615 157.1 139.377C156.52 140.139 156.23 141.206 156.23 142.58V142.922C156.23 144.27 156.52 145.321 157.1 146.076C157.686 146.831 158.509 147.209 159.57 147.209ZM168.848 143.156H167.227V148H166.045V137.434H167.227V142.121H168.828L172.705 137.434H174.18L169.844 142.561L174.658 148H173.115L168.848 143.156ZM183.291 137.434H184.463V148H183.291V139.318L177.588 148H176.426V137.434H177.588V146.125L183.291 137.434ZM191.689 148.195C190.791 148.195 189.977 147.974 189.248 147.531C188.525 147.089 187.962 146.473 187.559 145.686C187.155 144.891 186.953 144.003 186.953 143.02V142.6C186.953 141.584 187.148 140.669 187.539 139.855C187.936 139.042 188.486 138.404 189.189 137.941C189.893 137.473 190.654 137.238 191.475 137.238C192.757 137.238 193.773 137.678 194.521 138.557C195.277 139.429 195.654 140.624 195.654 142.141V142.795H188.115V143.02C188.115 144.217 188.457 145.217 189.141 146.018C189.831 146.812 190.697 147.209 191.738 147.209C192.363 147.209 192.913 147.095 193.389 146.867C193.87 146.639 194.307 146.275 194.697 145.773L195.43 146.33C194.57 147.574 193.324 148.195 191.689 148.195ZM191.475 138.234C190.596 138.234 189.854 138.557 189.248 139.201C188.649 139.846 188.285 140.712 188.154 141.799H194.492V141.672C194.46 140.656 194.17 139.829 193.623 139.191C193.076 138.553 192.36 138.234 191.475 138.234ZM37.6465 175H36.4746V165.439H30.7812V175H29.6094V164.434H37.6465V175ZM47.4512 175C47.334 174.668 47.2591 174.176 47.2266 173.525C46.8164 174.059 46.2923 174.473 45.6543 174.766C45.0228 175.052 44.3522 175.195 43.6426 175.195C42.627 175.195 41.8034 174.912 41.1719 174.346C40.5469 173.779 40.2344 173.063 40.2344 172.197C40.2344 171.169 40.6608 170.355 41.5137 169.756C42.373 169.157 43.5677 168.857 45.0977 168.857H47.2168V167.656C47.2168 166.901 46.9824 166.309 46.5137 165.879C46.0514 165.443 45.3743 165.225 44.4824 165.225C43.6686 165.225 42.9948 165.433 42.4609 165.85C41.9271 166.266 41.6602 166.768 41.6602 167.354L40.4883 167.344C40.4883 166.504 40.8789 165.778 41.6602 165.166C42.4414 164.548 43.4017 164.238 44.541 164.238C45.7194 164.238 46.6471 164.535 47.3242 165.127C48.0078 165.713 48.3594 166.533 48.3789 167.588V172.588C48.3789 173.61 48.4863 174.375 48.7012 174.883V175H47.4512ZM43.7793 174.16C44.5605 174.16 45.2572 173.971 45.8691 173.594C46.4876 173.216 46.9368 172.712 47.2168 172.08V169.756H45.127C43.9616 169.769 43.0501 169.984 42.3926 170.4C41.735 170.811 41.4062 171.377 41.4062 172.1C41.4062 172.692 41.6243 173.184 42.0605 173.574C42.5033 173.965 43.0762 174.16 43.7793 174.16ZM60 169.824C60 171.471 59.6354 172.78 58.9062 173.75C58.1771 174.714 57.2005 175.195 55.9766 175.195C54.5312 175.195 53.4245 174.688 52.6562 173.672V179.062H51.4941V164.434H52.5781L52.6367 165.928C53.3984 164.801 54.502 164.238 55.9473 164.238C57.2103 164.238 58.1999 164.717 58.916 165.674C59.6387 166.631 60 167.959 60 169.658V169.824ZM58.8281 169.619C58.8281 168.271 58.5514 167.207 57.998 166.426C57.4447 165.645 56.6732 165.254 55.6836 165.254C54.9674 165.254 54.3522 165.426 53.8379 165.771C53.3236 166.117 52.9297 166.618 52.6562 167.275V172.344C52.9362 172.949 53.3366 173.411 53.8574 173.73C54.3783 174.049 54.9935 174.209 55.7031 174.209C56.6862 174.209 57.4512 173.818 57.998 173.037C58.5514 172.249 58.8281 171.11 58.8281 169.619ZM65.4688 170.156H63.8477V175H62.666V164.434H63.8477V169.121H65.4492L69.3262 164.434H70.8008L66.4648 169.561L71.2793 175H69.7363L65.4688 170.156ZM79.9121 164.434H81.084V175H79.9121V166.318L74.209 175H73.0469V164.434H74.209V173.125L79.9121 164.434ZM96.0254 164.434H97.1973V175H96.0254V166.318L90.3223 175H89.1602V164.434H90.3223V173.125L96.0254 164.434ZM109.102 174.209C109.915 174.209 110.596 173.981 111.143 173.525C111.696 173.063 111.995 172.467 112.041 171.738H113.164C113.132 172.383 112.93 172.972 112.559 173.506C112.188 174.033 111.693 174.447 111.074 174.746C110.462 175.046 109.805 175.195 109.102 175.195C107.715 175.195 106.615 174.714 105.801 173.75C104.993 172.786 104.59 171.491 104.59 169.863V169.512C104.59 168.47 104.772 167.549 105.137 166.748C105.501 165.947 106.022 165.329 106.699 164.893C107.383 164.456 108.18 164.238 109.092 164.238C110.251 164.238 111.204 164.583 111.953 165.273C112.708 165.964 113.112 166.872 113.164 167.998H112.041C111.989 167.171 111.689 166.504 111.143 165.996C110.602 165.488 109.919 165.234 109.092 165.234C108.037 165.234 107.217 165.615 106.631 166.377C106.051 167.139 105.762 168.206 105.762 169.58V169.922C105.762 171.27 106.051 172.321 106.631 173.076C107.217 173.831 108.04 174.209 109.102 174.209ZM118.379 170.156H116.758V175H115.576V164.434H116.758V169.121H118.359L122.236 164.434H123.711L119.375 169.561L124.189 175H122.646L118.379 170.156ZM126.006 175V164.434H129.883C131.224 164.434 132.253 164.674 132.969 165.156C133.685 165.632 134.043 166.331 134.043 167.256C134.043 167.783 133.883 168.255 133.564 168.672C133.245 169.082 132.78 169.382 132.168 169.57C132.858 169.701 133.411 169.997 133.828 170.459C134.251 170.921 134.463 171.458 134.463 172.07C134.463 173.001 134.118 173.724 133.428 174.238C132.744 174.746 131.774 175 130.518 175H126.006ZM127.168 170.137V174.023H130.557C131.436 174.023 132.113 173.854 132.588 173.516C133.063 173.177 133.301 172.689 133.301 172.051C133.301 171.465 133.063 170.999 132.588 170.654C132.113 170.309 131.436 170.137 130.557 170.137H127.168ZM127.168 169.16H130.127C131.963 169.134 132.881 168.509 132.881 167.285C132.881 166.641 132.627 166.172 132.119 165.879C131.618 165.579 130.872 165.43 129.883 165.43H127.168V169.16ZM141.162 175.195C140.264 175.195 139.45 174.974 138.721 174.531C137.998 174.089 137.435 173.473 137.031 172.686C136.628 171.891 136.426 171.003 136.426 170.02V169.6C136.426 168.584 136.621 167.669 137.012 166.855C137.409 166.042 137.959 165.404 138.662 164.941C139.365 164.473 140.127 164.238 140.947 164.238C142.23 164.238 143.245 164.678 143.994 165.557C144.749 166.429 145.127 167.624 145.127 169.141V169.795H137.588V170.02C137.588 171.217 137.93 172.217 138.613 173.018C139.303 173.812 140.169 174.209 141.211 174.209C141.836 174.209 142.386 174.095 142.861 173.867C143.343 173.639 143.779 173.275 144.17 172.773L144.902 173.33C144.043 174.574 142.796 175.195 141.162 175.195ZM140.947 165.234C140.068 165.234 139.326 165.557 138.721 166.201C138.122 166.846 137.757 167.712 137.627 168.799H143.965V168.672C143.932 167.656 143.643 166.829 143.096 166.191C142.549 165.553 141.833 165.234 140.947 165.234ZM155.898 169.824C155.898 171.471 155.534 172.78 154.805 173.75C154.076 174.714 153.099 175.195 151.875 175.195C150.43 175.195 149.323 174.688 148.555 173.672V179.062H147.393V164.434H148.477L148.535 165.928C149.297 164.801 150.4 164.238 151.846 164.238C153.109 164.238 154.098 164.717 154.814 165.674C155.537 166.631 155.898 167.959 155.898 169.658V169.824ZM154.727 169.619C154.727 168.271 154.45 167.207 153.896 166.426C153.343 165.645 152.572 165.254 151.582 165.254C150.866 165.254 150.251 165.426 149.736 165.771C149.222 166.117 148.828 166.618 148.555 167.275V172.344C148.835 172.949 149.235 173.411 149.756 173.73C150.277 174.049 150.892 174.209 151.602 174.209C152.585 174.209 153.35 173.818 153.896 173.037C154.45 172.249 154.727 171.11 154.727 169.619ZM159.785 168.271H162.832C163.613 168.271 164.297 168.415 164.883 168.701C165.475 168.981 165.921 169.372 166.221 169.873C166.527 170.374 166.68 170.957 166.68 171.621C166.68 172.643 166.328 173.464 165.625 174.082C164.928 174.694 163.984 175 162.793 175H158.623V164.434H159.785V168.271ZM159.785 169.268V174.014H162.812C163.652 174.014 164.31 173.802 164.785 173.379C165.267 172.956 165.508 172.376 165.508 171.641C165.508 170.938 165.273 170.371 164.805 169.941C164.342 169.505 163.708 169.281 162.9 169.268H159.785ZM170.264 175H169.092V164.434H170.264V175Z" fill="white"/>
</svg>
